G04 #@! TF.GenerationSoftware,KiCad,Pcbnew,(5.1.2)-2*
G04 #@! TF.CreationDate,2019-08-20T12:10:41-04:00*
G04 #@! TF.ProjectId,ActiveElectrodes2,41637469-7665-4456-9c65-6374726f6465,rev?*
G04 #@! TF.SameCoordinates,Original*
G04 #@! TF.FileFunction,Copper,L2,Bot*
G04 #@! TF.FilePolarity,Positive*
%FSLAX46Y46*%
G04 Gerber Fmt 4.6, Leading zero omitted, Abs format (unit mm)*
G04 Created by KiCad (PCBNEW (5.1.2)-2) date 2019-08-20 12:10:41*
%MOMM*%
%LPD*%
G04 APERTURE LIST*
%ADD10R,2.000000X1.000000*%
%ADD11C,0.508000*%
%ADD12C,0.500000*%
%ADD13C,0.229000*%
%ADD14C,0.254000*%
G04 APERTURE END LIST*
D10*
X46610000Y-31120000D03*
X46610000Y-29850000D03*
X46610000Y-28580000D03*
X46610000Y-27310000D03*
D11*
X50400000Y-28250000D03*
X51970000Y-31310000D03*
X49230000Y-32780000D03*
X53300000Y-27280000D03*
X48216139Y-31880901D03*
X51130000Y-27140000D03*
X51880000Y-29310000D03*
X47390000Y-33430000D03*
X53150000Y-31530000D03*
X46610000Y-29850000D03*
D12*
X50400000Y-29470000D02*
X50400000Y-28250000D01*
X50400000Y-29740000D02*
X50400000Y-29470000D01*
X51970000Y-31310000D02*
X50400000Y-29740000D01*
D13*
X46610000Y-31849000D02*
X46610000Y-31120000D01*
X47541000Y-32780000D02*
X46610000Y-31849000D01*
X49230000Y-32780000D02*
X47541000Y-32780000D01*
X52325000Y-27280000D02*
X53300000Y-27280000D01*
X51875901Y-27729099D02*
X52325000Y-27280000D01*
X50149967Y-27729099D02*
X51875901Y-27729099D01*
X49879099Y-27999967D02*
X50149967Y-27729099D01*
X49879099Y-30217941D02*
X49879099Y-27999967D01*
X48216139Y-31880901D02*
X49879099Y-30217941D01*
X48419033Y-27999967D02*
X49879099Y-27999967D01*
X47839000Y-28580000D02*
X48419033Y-27999967D01*
X46610000Y-28580000D02*
X47839000Y-28580000D01*
D12*
X51130000Y-27140000D02*
X47230000Y-27140000D01*
D13*
X53270000Y-29310000D02*
X53300000Y-29280000D01*
X51880000Y-29310000D02*
X53270000Y-29310000D01*
D14*
G36*
X54150754Y-27880355D02*
G01*
X54367036Y-28687531D01*
X54439868Y-29520000D01*
X54367036Y-30352469D01*
X54150754Y-31159645D01*
X53797594Y-31917000D01*
X53318285Y-32601524D01*
X52727392Y-33192417D01*
X52042868Y-33671726D01*
X51285513Y-34024886D01*
X50478337Y-34241168D01*
X49645868Y-34314000D01*
X48813399Y-34241168D01*
X48006223Y-34024886D01*
X47248868Y-33671726D01*
X46564344Y-33192417D01*
X45973451Y-32601524D01*
X45550121Y-31996946D01*
X45610000Y-32002843D01*
X46138872Y-32002843D01*
X46150003Y-32039536D01*
X46196014Y-32125617D01*
X46257934Y-32201066D01*
X46276839Y-32216581D01*
X47173423Y-33113166D01*
X47188934Y-33132066D01*
X47207834Y-33147577D01*
X47207837Y-33147580D01*
X47262471Y-33192417D01*
X47264383Y-33193986D01*
X47350463Y-33239997D01*
X47443865Y-33268330D01*
X47516663Y-33275500D01*
X47516671Y-33275500D01*
X47541000Y-33277896D01*
X47565329Y-33275500D01*
X48828599Y-33275500D01*
X48929215Y-33342729D01*
X49044777Y-33390597D01*
X49167458Y-33415000D01*
X49292542Y-33415000D01*
X49415223Y-33390597D01*
X49530785Y-33342729D01*
X49634789Y-33273236D01*
X49723236Y-33184789D01*
X49792729Y-33080785D01*
X49840597Y-32965223D01*
X49865000Y-32842542D01*
X49865000Y-32717458D01*
X49840597Y-32594777D01*
X49792729Y-32479215D01*
X49723236Y-32375211D01*
X49634789Y-32286764D01*
X49530785Y-32217271D01*
X49415223Y-32169403D01*
X49292542Y-32145000D01*
X49167458Y-32145000D01*
X49044777Y-32169403D01*
X48929215Y-32217271D01*
X48828599Y-32284500D01*
X48710170Y-32284500D01*
X48778868Y-32181686D01*
X48826736Y-32066124D01*
X48850344Y-31947438D01*
X50212265Y-30585518D01*
X50231165Y-30570007D01*
X50246676Y-30551107D01*
X50246679Y-30551104D01*
X50279159Y-30511527D01*
X51465375Y-31697744D01*
X51476764Y-31714789D01*
X51565211Y-31803236D01*
X51669215Y-31872729D01*
X51784777Y-31920597D01*
X51907458Y-31945000D01*
X52032542Y-31945000D01*
X52155223Y-31920597D01*
X52270785Y-31872729D01*
X52374789Y-31803236D01*
X52463236Y-31714789D01*
X52532729Y-31610785D01*
X52580597Y-31495223D01*
X52605000Y-31372542D01*
X52605000Y-31247458D01*
X52580597Y-31124777D01*
X52532729Y-31009215D01*
X52463236Y-30905211D01*
X52374789Y-30816764D01*
X52357744Y-30805375D01*
X51031000Y-29478632D01*
X51031000Y-28332651D01*
X51035000Y-28312542D01*
X51035000Y-28224599D01*
X51851572Y-28224599D01*
X51875901Y-28226995D01*
X51900230Y-28224599D01*
X51900238Y-28224599D01*
X51973036Y-28217429D01*
X52066438Y-28189096D01*
X52152518Y-28143085D01*
X52227967Y-28081165D01*
X52243482Y-28062260D01*
X52530243Y-27775500D01*
X52898599Y-27775500D01*
X52999215Y-27842729D01*
X53114777Y-27890597D01*
X53237458Y-27915000D01*
X53362542Y-27915000D01*
X53485223Y-27890597D01*
X53600785Y-27842729D01*
X53704789Y-27773236D01*
X53793236Y-27684789D01*
X53862729Y-27580785D01*
X53910597Y-27465223D01*
X53924525Y-27395204D01*
X54150754Y-27880355D01*
X54150754Y-27880355D01*
G37*
X54150754Y-27880355D02*
X54367036Y-28687531D01*
X54439868Y-29520000D01*
X54367036Y-30352469D01*
X54150754Y-31159645D01*
X53797594Y-31917000D01*
X53318285Y-32601524D01*
X52727392Y-33192417D01*
X52042868Y-33671726D01*
X51285513Y-34024886D01*
X50478337Y-34241168D01*
X49645868Y-34314000D01*
X48813399Y-34241168D01*
X48006223Y-34024886D01*
X47248868Y-33671726D01*
X46564344Y-33192417D01*
X45973451Y-32601524D01*
X45550121Y-31996946D01*
X45610000Y-32002843D01*
X46138872Y-32002843D01*
X46150003Y-32039536D01*
X46196014Y-32125617D01*
X46257934Y-32201066D01*
X46276839Y-32216581D01*
X47173423Y-33113166D01*
X47188934Y-33132066D01*
X47207834Y-33147577D01*
X47207837Y-33147580D01*
X47262471Y-33192417D01*
X47264383Y-33193986D01*
X47350463Y-33239997D01*
X47443865Y-33268330D01*
X47516663Y-33275500D01*
X47516671Y-33275500D01*
X47541000Y-33277896D01*
X47565329Y-33275500D01*
X48828599Y-33275500D01*
X48929215Y-33342729D01*
X49044777Y-33390597D01*
X49167458Y-33415000D01*
X49292542Y-33415000D01*
X49415223Y-33390597D01*
X49530785Y-33342729D01*
X49634789Y-33273236D01*
X49723236Y-33184789D01*
X49792729Y-33080785D01*
X49840597Y-32965223D01*
X49865000Y-32842542D01*
X49865000Y-32717458D01*
X49840597Y-32594777D01*
X49792729Y-32479215D01*
X49723236Y-32375211D01*
X49634789Y-32286764D01*
X49530785Y-32217271D01*
X49415223Y-32169403D01*
X49292542Y-32145000D01*
X49167458Y-32145000D01*
X49044777Y-32169403D01*
X48929215Y-32217271D01*
X48828599Y-32284500D01*
X48710170Y-32284500D01*
X48778868Y-32181686D01*
X48826736Y-32066124D01*
X48850344Y-31947438D01*
X50212265Y-30585518D01*
X50231165Y-30570007D01*
X50246676Y-30551107D01*
X50246679Y-30551104D01*
X50279159Y-30511527D01*
X51465375Y-31697744D01*
X51476764Y-31714789D01*
X51565211Y-31803236D01*
X51669215Y-31872729D01*
X51784777Y-31920597D01*
X51907458Y-31945000D01*
X52032542Y-31945000D01*
X52155223Y-31920597D01*
X52270785Y-31872729D01*
X52374789Y-31803236D01*
X52463236Y-31714789D01*
X52532729Y-31610785D01*
X52580597Y-31495223D01*
X52605000Y-31372542D01*
X52605000Y-31247458D01*
X52580597Y-31124777D01*
X52532729Y-31009215D01*
X52463236Y-30905211D01*
X52374789Y-30816764D01*
X52357744Y-30805375D01*
X51031000Y-29478632D01*
X51031000Y-28332651D01*
X51035000Y-28312542D01*
X51035000Y-28224599D01*
X51851572Y-28224599D01*
X51875901Y-28226995D01*
X51900230Y-28224599D01*
X51900238Y-28224599D01*
X51973036Y-28217429D01*
X52066438Y-28189096D01*
X52152518Y-28143085D01*
X52227967Y-28081165D01*
X52243482Y-28062260D01*
X52530243Y-27775500D01*
X52898599Y-27775500D01*
X52999215Y-27842729D01*
X53114777Y-27890597D01*
X53237458Y-27915000D01*
X53362542Y-27915000D01*
X53485223Y-27890597D01*
X53600785Y-27842729D01*
X53704789Y-27773236D01*
X53793236Y-27684789D01*
X53862729Y-27580785D01*
X53910597Y-27465223D01*
X53924525Y-27395204D01*
X54150754Y-27880355D01*
G36*
X45227157Y-27810000D02*
G01*
X45234513Y-27884689D01*
X45252808Y-27945000D01*
X45234513Y-28005311D01*
X45227157Y-28080000D01*
X45227157Y-29080000D01*
X45234513Y-29154689D01*
X45252808Y-29215000D01*
X45234513Y-29275311D01*
X45227157Y-29350000D01*
X45229000Y-29681750D01*
X45324250Y-29777000D01*
X46537000Y-29777000D01*
X46537000Y-29757000D01*
X46683000Y-29757000D01*
X46683000Y-29777000D01*
X47895750Y-29777000D01*
X47991000Y-29681750D01*
X47992843Y-29350000D01*
X47985487Y-29275311D01*
X47967192Y-29215000D01*
X47985487Y-29154689D01*
X47992843Y-29080000D01*
X47992843Y-29051128D01*
X48029537Y-29039997D01*
X48115617Y-28993986D01*
X48191066Y-28932066D01*
X48206581Y-28913161D01*
X48624276Y-28495467D01*
X49383600Y-28495467D01*
X49383599Y-30012698D01*
X48149602Y-31246696D01*
X48030916Y-31270304D01*
X47992843Y-31286075D01*
X47992843Y-30620000D01*
X47985487Y-30545311D01*
X47967192Y-30485000D01*
X47985487Y-30424689D01*
X47992843Y-30350000D01*
X47991000Y-30018250D01*
X47895750Y-29923000D01*
X46683000Y-29923000D01*
X46683000Y-29943000D01*
X46537000Y-29943000D01*
X46537000Y-29923000D01*
X45324250Y-29923000D01*
X45229000Y-30018250D01*
X45227157Y-30350000D01*
X45234513Y-30424689D01*
X45252808Y-30485000D01*
X45234513Y-30545311D01*
X45227157Y-30620000D01*
X45227157Y-31344448D01*
X45140982Y-31159645D01*
X44924700Y-30352469D01*
X44851868Y-29520000D01*
X44924700Y-28687531D01*
X45140982Y-27880355D01*
X45227157Y-27695552D01*
X45227157Y-27810000D01*
X45227157Y-27810000D01*
G37*
X45227157Y-27810000D02*
X45234513Y-27884689D01*
X45252808Y-27945000D01*
X45234513Y-28005311D01*
X45227157Y-28080000D01*
X45227157Y-29080000D01*
X45234513Y-29154689D01*
X45252808Y-29215000D01*
X45234513Y-29275311D01*
X45227157Y-29350000D01*
X45229000Y-29681750D01*
X45324250Y-29777000D01*
X46537000Y-29777000D01*
X46537000Y-29757000D01*
X46683000Y-29757000D01*
X46683000Y-29777000D01*
X47895750Y-29777000D01*
X47991000Y-29681750D01*
X47992843Y-29350000D01*
X47985487Y-29275311D01*
X47967192Y-29215000D01*
X47985487Y-29154689D01*
X47992843Y-29080000D01*
X47992843Y-29051128D01*
X48029537Y-29039997D01*
X48115617Y-28993986D01*
X48191066Y-28932066D01*
X48206581Y-28913161D01*
X48624276Y-28495467D01*
X49383600Y-28495467D01*
X49383599Y-30012698D01*
X48149602Y-31246696D01*
X48030916Y-31270304D01*
X47992843Y-31286075D01*
X47992843Y-30620000D01*
X47985487Y-30545311D01*
X47967192Y-30485000D01*
X47985487Y-30424689D01*
X47992843Y-30350000D01*
X47991000Y-30018250D01*
X47895750Y-29923000D01*
X46683000Y-29923000D01*
X46683000Y-29943000D01*
X46537000Y-29943000D01*
X46537000Y-29923000D01*
X45324250Y-29923000D01*
X45229000Y-30018250D01*
X45227157Y-30350000D01*
X45234513Y-30424689D01*
X45252808Y-30485000D01*
X45234513Y-30545311D01*
X45227157Y-30620000D01*
X45227157Y-31344448D01*
X45140982Y-31159645D01*
X44924700Y-30352469D01*
X44851868Y-29520000D01*
X44924700Y-28687531D01*
X45140982Y-27880355D01*
X45227157Y-27695552D01*
X45227157Y-27810000D01*
M02*
