G04 #@! TF.GenerationSoftware,KiCad,Pcbnew,(5.1.2)-2*
G04 #@! TF.CreationDate,2019-08-20T12:10:41-04:00*
G04 #@! TF.ProjectId,ActiveElectrodes2,41637469-7665-4456-9c65-6374726f6465,rev?*
G04 #@! TF.SameCoordinates,Original*
G04 #@! TF.FileFunction,Legend,Top*
G04 #@! TF.FilePolarity,Positive*
%FSLAX46Y46*%
G04 Gerber Fmt 4.6, Leading zero omitted, Abs format (unit mm)*
G04 Created by KiCad (PCBNEW (5.1.2)-2) date 2019-08-20 12:10:41*
%MOMM*%
%LPD*%
G04 APERTURE LIST*
%ADD10C,0.100000*%
%ADD11C,0.120000*%
%ADD12C,0.090000*%
G04 APERTURE END LIST*
D10*
X52646666Y-32645714D02*
X52646666Y-32883809D01*
X52503809Y-32598095D02*
X53003809Y-32764761D01*
X52503809Y-32931428D01*
X52503809Y-33098095D02*
X52837142Y-33098095D01*
X53003809Y-33098095D02*
X52980000Y-33074285D01*
X52956190Y-33098095D01*
X52980000Y-33121904D01*
X53003809Y-33098095D01*
X52956190Y-33098095D01*
X52837142Y-33336190D02*
X52503809Y-33336190D01*
X52789523Y-33336190D02*
X52813333Y-33360000D01*
X52837142Y-33407619D01*
X52837142Y-33479047D01*
X52813333Y-33526666D01*
X52765714Y-33550476D01*
X52503809Y-33550476D01*
D11*
X48800000Y-28420000D02*
X49930000Y-28420000D01*
X48800000Y-29540000D02*
X48800000Y-28420000D01*
X52310000Y-34110000D02*
X51200000Y-34110000D01*
X52310000Y-33350000D02*
X52310000Y-34110000D01*
X50636529Y-32590000D02*
X50090000Y-32590000D01*
X52310000Y-32590000D02*
X51763471Y-32590000D01*
X50090000Y-32590000D02*
X50090000Y-32655000D01*
X52310000Y-32590000D02*
X52310000Y-32655000D01*
X52310000Y-32590000D02*
X50090000Y-32590000D01*
D10*
X45916190Y-27343333D02*
X45678095Y-27510000D01*
X45916190Y-27629047D02*
X45416190Y-27629047D01*
X45416190Y-27438571D01*
X45440000Y-27390952D01*
X45463809Y-27367142D01*
X45511428Y-27343333D01*
X45582857Y-27343333D01*
X45630476Y-27367142D01*
X45654285Y-27390952D01*
X45678095Y-27438571D01*
X45678095Y-27629047D01*
X45416190Y-26890952D02*
X45416190Y-27129047D01*
X45654285Y-27152857D01*
X45630476Y-27129047D01*
X45606666Y-27081428D01*
X45606666Y-26962380D01*
X45630476Y-26914761D01*
X45654285Y-26890952D01*
X45701904Y-26867142D01*
X45820952Y-26867142D01*
X45868571Y-26890952D01*
X45892380Y-26914761D01*
X45916190Y-26962380D01*
X45916190Y-27081428D01*
X45892380Y-27129047D01*
X45868571Y-27152857D01*
X51178571Y-30643333D02*
X51202380Y-30667142D01*
X51226190Y-30738571D01*
X51226190Y-30786190D01*
X51202380Y-30857619D01*
X51154761Y-30905238D01*
X51107142Y-30929047D01*
X51011904Y-30952857D01*
X50940476Y-30952857D01*
X50845238Y-30929047D01*
X50797619Y-30905238D01*
X50750000Y-30857619D01*
X50726190Y-30786190D01*
X50726190Y-30738571D01*
X50750000Y-30667142D01*
X50773809Y-30643333D01*
X50773809Y-30452857D02*
X50750000Y-30429047D01*
X50726190Y-30381428D01*
X50726190Y-30262380D01*
X50750000Y-30214761D01*
X50773809Y-30190952D01*
X50821428Y-30167142D01*
X50869047Y-30167142D01*
X50940476Y-30190952D01*
X51226190Y-30476666D01*
X51226190Y-30167142D01*
X46786190Y-30283333D02*
X46548095Y-30450000D01*
X46786190Y-30569047D02*
X46286190Y-30569047D01*
X46286190Y-30378571D01*
X46310000Y-30330952D01*
X46333809Y-30307142D01*
X46381428Y-30283333D01*
X46452857Y-30283333D01*
X46500476Y-30307142D01*
X46524285Y-30330952D01*
X46548095Y-30378571D01*
X46548095Y-30569047D01*
X46786190Y-29807142D02*
X46786190Y-30092857D01*
X46786190Y-29950000D02*
X46286190Y-29950000D01*
X46357619Y-29997619D01*
X46405238Y-30045238D01*
X46429047Y-30092857D01*
X45876190Y-28573333D02*
X45638095Y-28740000D01*
X45876190Y-28859047D02*
X45376190Y-28859047D01*
X45376190Y-28668571D01*
X45400000Y-28620952D01*
X45423809Y-28597142D01*
X45471428Y-28573333D01*
X45542857Y-28573333D01*
X45590476Y-28597142D01*
X45614285Y-28620952D01*
X45638095Y-28668571D01*
X45638095Y-28859047D01*
X45423809Y-28382857D02*
X45400000Y-28359047D01*
X45376190Y-28311428D01*
X45376190Y-28192380D01*
X45400000Y-28144761D01*
X45423809Y-28120952D01*
X45471428Y-28097142D01*
X45519047Y-28097142D01*
X45590476Y-28120952D01*
X45876190Y-28406666D01*
X45876190Y-28097142D01*
X48471190Y-27203333D02*
X48233095Y-27370000D01*
X48471190Y-27489047D02*
X47971190Y-27489047D01*
X47971190Y-27298571D01*
X47995000Y-27250952D01*
X48018809Y-27227142D01*
X48066428Y-27203333D01*
X48137857Y-27203333D01*
X48185476Y-27227142D01*
X48209285Y-27250952D01*
X48233095Y-27298571D01*
X48233095Y-27489047D01*
X47971190Y-27036666D02*
X47971190Y-26727142D01*
X48161666Y-26893809D01*
X48161666Y-26822380D01*
X48185476Y-26774761D01*
X48209285Y-26750952D01*
X48256904Y-26727142D01*
X48375952Y-26727142D01*
X48423571Y-26750952D01*
X48447380Y-26774761D01*
X48471190Y-26822380D01*
X48471190Y-26965238D01*
X48447380Y-27012857D01*
X48423571Y-27036666D01*
X51956666Y-26586190D02*
X51790000Y-26348095D01*
X51670952Y-26586190D02*
X51670952Y-26086190D01*
X51861428Y-26086190D01*
X51909047Y-26110000D01*
X51932857Y-26133809D01*
X51956666Y-26181428D01*
X51956666Y-26252857D01*
X51932857Y-26300476D01*
X51909047Y-26324285D01*
X51861428Y-26348095D01*
X51670952Y-26348095D01*
X52385238Y-26252857D02*
X52385238Y-26586190D01*
X52266190Y-26062380D02*
X52147142Y-26419523D01*
X52456666Y-26419523D01*
D12*
X48850714Y-28153571D02*
X48850714Y-27703571D01*
X49322142Y-28110714D02*
X49300714Y-28132142D01*
X49236428Y-28153571D01*
X49193571Y-28153571D01*
X49129285Y-28132142D01*
X49086428Y-28089285D01*
X49065000Y-28046428D01*
X49043571Y-27960714D01*
X49043571Y-27896428D01*
X49065000Y-27810714D01*
X49086428Y-27767857D01*
X49129285Y-27725000D01*
X49193571Y-27703571D01*
X49236428Y-27703571D01*
X49300714Y-27725000D01*
X49322142Y-27746428D01*
X49750714Y-28153571D02*
X49493571Y-28153571D01*
X49622142Y-28153571D02*
X49622142Y-27703571D01*
X49579285Y-27767857D01*
X49536428Y-27810714D01*
X49493571Y-27832142D01*
D10*
X52933333Y-27642857D02*
X52914285Y-27661904D01*
X52857142Y-27680952D01*
X52819047Y-27680952D01*
X52761904Y-27661904D01*
X52723809Y-27623809D01*
X52704761Y-27585714D01*
X52685714Y-27509523D01*
X52685714Y-27452380D01*
X52704761Y-27376190D01*
X52723809Y-27338095D01*
X52761904Y-27300000D01*
X52819047Y-27280952D01*
X52857142Y-27280952D01*
X52914285Y-27300000D01*
X52933333Y-27319047D01*
X53066666Y-27280952D02*
X53314285Y-27280952D01*
X53180952Y-27433333D01*
X53238095Y-27433333D01*
X53276190Y-27452380D01*
X53295238Y-27471428D01*
X53314285Y-27509523D01*
X53314285Y-27604761D01*
X53295238Y-27642857D01*
X53276190Y-27661904D01*
X53238095Y-27680952D01*
X53123809Y-27680952D01*
X53085714Y-27661904D01*
X53066666Y-27642857D01*
X53953333Y-27662857D02*
X53934285Y-27681904D01*
X53877142Y-27700952D01*
X53839047Y-27700952D01*
X53781904Y-27681904D01*
X53743809Y-27643809D01*
X53724761Y-27605714D01*
X53705714Y-27529523D01*
X53705714Y-27472380D01*
X53724761Y-27396190D01*
X53743809Y-27358095D01*
X53781904Y-27320000D01*
X53839047Y-27300952D01*
X53877142Y-27300952D01*
X53934285Y-27320000D01*
X53953333Y-27339047D01*
X54296190Y-27434285D02*
X54296190Y-27700952D01*
X54200952Y-27281904D02*
X54105714Y-27567619D01*
X54353333Y-27567619D01*
X49686666Y-31348571D02*
X49662857Y-31372380D01*
X49591428Y-31396190D01*
X49543809Y-31396190D01*
X49472380Y-31372380D01*
X49424761Y-31324761D01*
X49400952Y-31277142D01*
X49377142Y-31181904D01*
X49377142Y-31110476D01*
X49400952Y-31015238D01*
X49424761Y-30967619D01*
X49472380Y-30920000D01*
X49543809Y-30896190D01*
X49591428Y-30896190D01*
X49662857Y-30920000D01*
X49686666Y-30943809D01*
X50162857Y-31396190D02*
X49877142Y-31396190D01*
X50020000Y-31396190D02*
X50020000Y-30896190D01*
X49972380Y-30967619D01*
X49924761Y-31015238D01*
X49877142Y-31039047D01*
X49213333Y-34542857D02*
X49194285Y-34561904D01*
X49137142Y-34580952D01*
X49099047Y-34580952D01*
X49041904Y-34561904D01*
X49003809Y-34523809D01*
X48984761Y-34485714D01*
X48965714Y-34409523D01*
X48965714Y-34352380D01*
X48984761Y-34276190D01*
X49003809Y-34238095D01*
X49041904Y-34200000D01*
X49099047Y-34180952D01*
X49137142Y-34180952D01*
X49194285Y-34200000D01*
X49213333Y-34219047D01*
X49575238Y-34180952D02*
X49384761Y-34180952D01*
X49365714Y-34371428D01*
X49384761Y-34352380D01*
X49422857Y-34333333D01*
X49518095Y-34333333D01*
X49556190Y-34352380D01*
X49575238Y-34371428D01*
X49594285Y-34409523D01*
X49594285Y-34504761D01*
X49575238Y-34542857D01*
X49556190Y-34561904D01*
X49518095Y-34580952D01*
X49422857Y-34580952D01*
X49384761Y-34561904D01*
X49365714Y-34542857D01*
X46810952Y-32606666D02*
X46620476Y-32740000D01*
X46810952Y-32835238D02*
X46410952Y-32835238D01*
X46410952Y-32682857D01*
X46430000Y-32644761D01*
X46449047Y-32625714D01*
X46487142Y-32606666D01*
X46544285Y-32606666D01*
X46582380Y-32625714D01*
X46601428Y-32644761D01*
X46620476Y-32682857D01*
X46620476Y-32835238D01*
X46410952Y-32263809D02*
X46410952Y-32340000D01*
X46430000Y-32378095D01*
X46449047Y-32397142D01*
X46506190Y-32435238D01*
X46582380Y-32454285D01*
X46734761Y-32454285D01*
X46772857Y-32435238D01*
X46791904Y-32416190D01*
X46810952Y-32378095D01*
X46810952Y-32301904D01*
X46791904Y-32263809D01*
X46772857Y-32244761D01*
X46734761Y-32225714D01*
X46639523Y-32225714D01*
X46601428Y-32244761D01*
X46582380Y-32263809D01*
X46563333Y-32301904D01*
X46563333Y-32378095D01*
X46582380Y-32416190D01*
X46601428Y-32435238D01*
X46639523Y-32454285D01*
M02*
