G04 #@! TF.GenerationSoftware,KiCad,Pcbnew,(5.1.2)-2*
G04 #@! TF.CreationDate,2019-08-20T12:10:41-04:00*
G04 #@! TF.ProjectId,ActiveElectrodes2,41637469-7665-4456-9c65-6374726f6465,rev?*
G04 #@! TF.SameCoordinates,Original*
G04 #@! TF.FileFunction,Paste,Top*
G04 #@! TF.FilePolarity,Positive*
%FSLAX46Y46*%
G04 Gerber Fmt 4.6, Leading zero omitted, Abs format (unit mm)*
G04 Created by KiCad (PCBNEW (5.1.2)-2) date 2019-08-20 12:10:41*
%MOMM*%
%LPD*%
G04 APERTURE LIST*
%ADD10C,0.100000*%
%ADD11C,0.590000*%
%ADD12C,0.254000*%
%ADD13C,1.000000*%
G04 APERTURE END LIST*
D10*
G36*
X47616958Y-26900710D02*
G01*
X47631276Y-26902834D01*
X47645317Y-26906351D01*
X47658946Y-26911228D01*
X47672031Y-26917417D01*
X47684447Y-26924858D01*
X47696073Y-26933481D01*
X47706798Y-26943202D01*
X47716519Y-26953927D01*
X47725142Y-26965553D01*
X47732583Y-26977969D01*
X47738772Y-26991054D01*
X47743649Y-27004683D01*
X47747166Y-27018724D01*
X47749290Y-27033042D01*
X47750000Y-27047500D01*
X47750000Y-27392500D01*
X47749290Y-27406958D01*
X47747166Y-27421276D01*
X47743649Y-27435317D01*
X47738772Y-27448946D01*
X47732583Y-27462031D01*
X47725142Y-27474447D01*
X47716519Y-27486073D01*
X47706798Y-27496798D01*
X47696073Y-27506519D01*
X47684447Y-27515142D01*
X47672031Y-27522583D01*
X47658946Y-27528772D01*
X47645317Y-27533649D01*
X47631276Y-27537166D01*
X47616958Y-27539290D01*
X47602500Y-27540000D01*
X47307500Y-27540000D01*
X47293042Y-27539290D01*
X47278724Y-27537166D01*
X47264683Y-27533649D01*
X47251054Y-27528772D01*
X47237969Y-27522583D01*
X47225553Y-27515142D01*
X47213927Y-27506519D01*
X47203202Y-27496798D01*
X47193481Y-27486073D01*
X47184858Y-27474447D01*
X47177417Y-27462031D01*
X47171228Y-27448946D01*
X47166351Y-27435317D01*
X47162834Y-27421276D01*
X47160710Y-27406958D01*
X47160000Y-27392500D01*
X47160000Y-27047500D01*
X47160710Y-27033042D01*
X47162834Y-27018724D01*
X47166351Y-27004683D01*
X47171228Y-26991054D01*
X47177417Y-26977969D01*
X47184858Y-26965553D01*
X47193481Y-26953927D01*
X47203202Y-26943202D01*
X47213927Y-26933481D01*
X47225553Y-26924858D01*
X47237969Y-26917417D01*
X47251054Y-26911228D01*
X47264683Y-26906351D01*
X47278724Y-26902834D01*
X47293042Y-26900710D01*
X47307500Y-26900000D01*
X47602500Y-26900000D01*
X47616958Y-26900710D01*
X47616958Y-26900710D01*
G37*
D11*
X47455000Y-27220000D03*
D10*
G36*
X46646958Y-26900710D02*
G01*
X46661276Y-26902834D01*
X46675317Y-26906351D01*
X46688946Y-26911228D01*
X46702031Y-26917417D01*
X46714447Y-26924858D01*
X46726073Y-26933481D01*
X46736798Y-26943202D01*
X46746519Y-26953927D01*
X46755142Y-26965553D01*
X46762583Y-26977969D01*
X46768772Y-26991054D01*
X46773649Y-27004683D01*
X46777166Y-27018724D01*
X46779290Y-27033042D01*
X46780000Y-27047500D01*
X46780000Y-27392500D01*
X46779290Y-27406958D01*
X46777166Y-27421276D01*
X46773649Y-27435317D01*
X46768772Y-27448946D01*
X46762583Y-27462031D01*
X46755142Y-27474447D01*
X46746519Y-27486073D01*
X46736798Y-27496798D01*
X46726073Y-27506519D01*
X46714447Y-27515142D01*
X46702031Y-27522583D01*
X46688946Y-27528772D01*
X46675317Y-27533649D01*
X46661276Y-27537166D01*
X46646958Y-27539290D01*
X46632500Y-27540000D01*
X46337500Y-27540000D01*
X46323042Y-27539290D01*
X46308724Y-27537166D01*
X46294683Y-27533649D01*
X46281054Y-27528772D01*
X46267969Y-27522583D01*
X46255553Y-27515142D01*
X46243927Y-27506519D01*
X46233202Y-27496798D01*
X46223481Y-27486073D01*
X46214858Y-27474447D01*
X46207417Y-27462031D01*
X46201228Y-27448946D01*
X46196351Y-27435317D01*
X46192834Y-27421276D01*
X46190710Y-27406958D01*
X46190000Y-27392500D01*
X46190000Y-27047500D01*
X46190710Y-27033042D01*
X46192834Y-27018724D01*
X46196351Y-27004683D01*
X46201228Y-26991054D01*
X46207417Y-26977969D01*
X46214858Y-26965553D01*
X46223481Y-26953927D01*
X46233202Y-26943202D01*
X46243927Y-26933481D01*
X46255553Y-26924858D01*
X46267969Y-26917417D01*
X46281054Y-26911228D01*
X46294683Y-26906351D01*
X46308724Y-26902834D01*
X46323042Y-26900710D01*
X46337500Y-26900000D01*
X46632500Y-26900000D01*
X46646958Y-26900710D01*
X46646958Y-26900710D01*
G37*
D11*
X46485000Y-27220000D03*
D10*
G36*
X53041958Y-30220710D02*
G01*
X53056276Y-30222834D01*
X53070317Y-30226351D01*
X53083946Y-30231228D01*
X53097031Y-30237417D01*
X53109447Y-30244858D01*
X53121073Y-30253481D01*
X53131798Y-30263202D01*
X53141519Y-30273927D01*
X53150142Y-30285553D01*
X53157583Y-30297969D01*
X53163772Y-30311054D01*
X53168649Y-30324683D01*
X53172166Y-30338724D01*
X53174290Y-30353042D01*
X53175000Y-30367500D01*
X53175000Y-30712500D01*
X53174290Y-30726958D01*
X53172166Y-30741276D01*
X53168649Y-30755317D01*
X53163772Y-30768946D01*
X53157583Y-30782031D01*
X53150142Y-30794447D01*
X53141519Y-30806073D01*
X53131798Y-30816798D01*
X53121073Y-30826519D01*
X53109447Y-30835142D01*
X53097031Y-30842583D01*
X53083946Y-30848772D01*
X53070317Y-30853649D01*
X53056276Y-30857166D01*
X53041958Y-30859290D01*
X53027500Y-30860000D01*
X52732500Y-30860000D01*
X52718042Y-30859290D01*
X52703724Y-30857166D01*
X52689683Y-30853649D01*
X52676054Y-30848772D01*
X52662969Y-30842583D01*
X52650553Y-30835142D01*
X52638927Y-30826519D01*
X52628202Y-30816798D01*
X52618481Y-30806073D01*
X52609858Y-30794447D01*
X52602417Y-30782031D01*
X52596228Y-30768946D01*
X52591351Y-30755317D01*
X52587834Y-30741276D01*
X52585710Y-30726958D01*
X52585000Y-30712500D01*
X52585000Y-30367500D01*
X52585710Y-30353042D01*
X52587834Y-30338724D01*
X52591351Y-30324683D01*
X52596228Y-30311054D01*
X52602417Y-30297969D01*
X52609858Y-30285553D01*
X52618481Y-30273927D01*
X52628202Y-30263202D01*
X52638927Y-30253481D01*
X52650553Y-30244858D01*
X52662969Y-30237417D01*
X52676054Y-30231228D01*
X52689683Y-30226351D01*
X52703724Y-30222834D01*
X52718042Y-30220710D01*
X52732500Y-30220000D01*
X53027500Y-30220000D01*
X53041958Y-30220710D01*
X53041958Y-30220710D01*
G37*
D11*
X52880000Y-30540000D03*
D10*
G36*
X52071958Y-30220710D02*
G01*
X52086276Y-30222834D01*
X52100317Y-30226351D01*
X52113946Y-30231228D01*
X52127031Y-30237417D01*
X52139447Y-30244858D01*
X52151073Y-30253481D01*
X52161798Y-30263202D01*
X52171519Y-30273927D01*
X52180142Y-30285553D01*
X52187583Y-30297969D01*
X52193772Y-30311054D01*
X52198649Y-30324683D01*
X52202166Y-30338724D01*
X52204290Y-30353042D01*
X52205000Y-30367500D01*
X52205000Y-30712500D01*
X52204290Y-30726958D01*
X52202166Y-30741276D01*
X52198649Y-30755317D01*
X52193772Y-30768946D01*
X52187583Y-30782031D01*
X52180142Y-30794447D01*
X52171519Y-30806073D01*
X52161798Y-30816798D01*
X52151073Y-30826519D01*
X52139447Y-30835142D01*
X52127031Y-30842583D01*
X52113946Y-30848772D01*
X52100317Y-30853649D01*
X52086276Y-30857166D01*
X52071958Y-30859290D01*
X52057500Y-30860000D01*
X51762500Y-30860000D01*
X51748042Y-30859290D01*
X51733724Y-30857166D01*
X51719683Y-30853649D01*
X51706054Y-30848772D01*
X51692969Y-30842583D01*
X51680553Y-30835142D01*
X51668927Y-30826519D01*
X51658202Y-30816798D01*
X51648481Y-30806073D01*
X51639858Y-30794447D01*
X51632417Y-30782031D01*
X51626228Y-30768946D01*
X51621351Y-30755317D01*
X51617834Y-30741276D01*
X51615710Y-30726958D01*
X51615000Y-30712500D01*
X51615000Y-30367500D01*
X51615710Y-30353042D01*
X51617834Y-30338724D01*
X51621351Y-30324683D01*
X51626228Y-30311054D01*
X51632417Y-30297969D01*
X51639858Y-30285553D01*
X51648481Y-30273927D01*
X51658202Y-30263202D01*
X51668927Y-30253481D01*
X51680553Y-30244858D01*
X51692969Y-30237417D01*
X51706054Y-30231228D01*
X51719683Y-30226351D01*
X51733724Y-30222834D01*
X51748042Y-30220710D01*
X51762500Y-30220000D01*
X52057500Y-30220000D01*
X52071958Y-30220710D01*
X52071958Y-30220710D01*
G37*
D11*
X51910000Y-30540000D03*
D10*
G36*
X47636958Y-29350710D02*
G01*
X47651276Y-29352834D01*
X47665317Y-29356351D01*
X47678946Y-29361228D01*
X47692031Y-29367417D01*
X47704447Y-29374858D01*
X47716073Y-29383481D01*
X47726798Y-29393202D01*
X47736519Y-29403927D01*
X47745142Y-29415553D01*
X47752583Y-29427969D01*
X47758772Y-29441054D01*
X47763649Y-29454683D01*
X47767166Y-29468724D01*
X47769290Y-29483042D01*
X47770000Y-29497500D01*
X47770000Y-29792500D01*
X47769290Y-29806958D01*
X47767166Y-29821276D01*
X47763649Y-29835317D01*
X47758772Y-29848946D01*
X47752583Y-29862031D01*
X47745142Y-29874447D01*
X47736519Y-29886073D01*
X47726798Y-29896798D01*
X47716073Y-29906519D01*
X47704447Y-29915142D01*
X47692031Y-29922583D01*
X47678946Y-29928772D01*
X47665317Y-29933649D01*
X47651276Y-29937166D01*
X47636958Y-29939290D01*
X47622500Y-29940000D01*
X47277500Y-29940000D01*
X47263042Y-29939290D01*
X47248724Y-29937166D01*
X47234683Y-29933649D01*
X47221054Y-29928772D01*
X47207969Y-29922583D01*
X47195553Y-29915142D01*
X47183927Y-29906519D01*
X47173202Y-29896798D01*
X47163481Y-29886073D01*
X47154858Y-29874447D01*
X47147417Y-29862031D01*
X47141228Y-29848946D01*
X47136351Y-29835317D01*
X47132834Y-29821276D01*
X47130710Y-29806958D01*
X47130000Y-29792500D01*
X47130000Y-29497500D01*
X47130710Y-29483042D01*
X47132834Y-29468724D01*
X47136351Y-29454683D01*
X47141228Y-29441054D01*
X47147417Y-29427969D01*
X47154858Y-29415553D01*
X47163481Y-29403927D01*
X47173202Y-29393202D01*
X47183927Y-29383481D01*
X47195553Y-29374858D01*
X47207969Y-29367417D01*
X47221054Y-29361228D01*
X47234683Y-29356351D01*
X47248724Y-29352834D01*
X47263042Y-29350710D01*
X47277500Y-29350000D01*
X47622500Y-29350000D01*
X47636958Y-29350710D01*
X47636958Y-29350710D01*
G37*
D11*
X47450000Y-29645000D03*
D10*
G36*
X47636958Y-30320710D02*
G01*
X47651276Y-30322834D01*
X47665317Y-30326351D01*
X47678946Y-30331228D01*
X47692031Y-30337417D01*
X47704447Y-30344858D01*
X47716073Y-30353481D01*
X47726798Y-30363202D01*
X47736519Y-30373927D01*
X47745142Y-30385553D01*
X47752583Y-30397969D01*
X47758772Y-30411054D01*
X47763649Y-30424683D01*
X47767166Y-30438724D01*
X47769290Y-30453042D01*
X47770000Y-30467500D01*
X47770000Y-30762500D01*
X47769290Y-30776958D01*
X47767166Y-30791276D01*
X47763649Y-30805317D01*
X47758772Y-30818946D01*
X47752583Y-30832031D01*
X47745142Y-30844447D01*
X47736519Y-30856073D01*
X47726798Y-30866798D01*
X47716073Y-30876519D01*
X47704447Y-30885142D01*
X47692031Y-30892583D01*
X47678946Y-30898772D01*
X47665317Y-30903649D01*
X47651276Y-30907166D01*
X47636958Y-30909290D01*
X47622500Y-30910000D01*
X47277500Y-30910000D01*
X47263042Y-30909290D01*
X47248724Y-30907166D01*
X47234683Y-30903649D01*
X47221054Y-30898772D01*
X47207969Y-30892583D01*
X47195553Y-30885142D01*
X47183927Y-30876519D01*
X47173202Y-30866798D01*
X47163481Y-30856073D01*
X47154858Y-30844447D01*
X47147417Y-30832031D01*
X47141228Y-30818946D01*
X47136351Y-30805317D01*
X47132834Y-30791276D01*
X47130710Y-30776958D01*
X47130000Y-30762500D01*
X47130000Y-30467500D01*
X47130710Y-30453042D01*
X47132834Y-30438724D01*
X47136351Y-30424683D01*
X47141228Y-30411054D01*
X47147417Y-30397969D01*
X47154858Y-30385553D01*
X47163481Y-30373927D01*
X47173202Y-30363202D01*
X47183927Y-30353481D01*
X47195553Y-30344858D01*
X47207969Y-30337417D01*
X47221054Y-30331228D01*
X47234683Y-30326351D01*
X47248724Y-30322834D01*
X47263042Y-30320710D01*
X47277500Y-30320000D01*
X47622500Y-30320000D01*
X47636958Y-30320710D01*
X47636958Y-30320710D01*
G37*
D11*
X47450000Y-30615000D03*
D10*
G36*
X46651958Y-28190710D02*
G01*
X46666276Y-28192834D01*
X46680317Y-28196351D01*
X46693946Y-28201228D01*
X46707031Y-28207417D01*
X46719447Y-28214858D01*
X46731073Y-28223481D01*
X46741798Y-28233202D01*
X46751519Y-28243927D01*
X46760142Y-28255553D01*
X46767583Y-28267969D01*
X46773772Y-28281054D01*
X46778649Y-28294683D01*
X46782166Y-28308724D01*
X46784290Y-28323042D01*
X46785000Y-28337500D01*
X46785000Y-28682500D01*
X46784290Y-28696958D01*
X46782166Y-28711276D01*
X46778649Y-28725317D01*
X46773772Y-28738946D01*
X46767583Y-28752031D01*
X46760142Y-28764447D01*
X46751519Y-28776073D01*
X46741798Y-28786798D01*
X46731073Y-28796519D01*
X46719447Y-28805142D01*
X46707031Y-28812583D01*
X46693946Y-28818772D01*
X46680317Y-28823649D01*
X46666276Y-28827166D01*
X46651958Y-28829290D01*
X46637500Y-28830000D01*
X46342500Y-28830000D01*
X46328042Y-28829290D01*
X46313724Y-28827166D01*
X46299683Y-28823649D01*
X46286054Y-28818772D01*
X46272969Y-28812583D01*
X46260553Y-28805142D01*
X46248927Y-28796519D01*
X46238202Y-28786798D01*
X46228481Y-28776073D01*
X46219858Y-28764447D01*
X46212417Y-28752031D01*
X46206228Y-28738946D01*
X46201351Y-28725317D01*
X46197834Y-28711276D01*
X46195710Y-28696958D01*
X46195000Y-28682500D01*
X46195000Y-28337500D01*
X46195710Y-28323042D01*
X46197834Y-28308724D01*
X46201351Y-28294683D01*
X46206228Y-28281054D01*
X46212417Y-28267969D01*
X46219858Y-28255553D01*
X46228481Y-28243927D01*
X46238202Y-28233202D01*
X46248927Y-28223481D01*
X46260553Y-28214858D01*
X46272969Y-28207417D01*
X46286054Y-28201228D01*
X46299683Y-28196351D01*
X46313724Y-28192834D01*
X46328042Y-28190710D01*
X46342500Y-28190000D01*
X46637500Y-28190000D01*
X46651958Y-28190710D01*
X46651958Y-28190710D01*
G37*
D11*
X46490000Y-28510000D03*
D10*
G36*
X47621958Y-28190710D02*
G01*
X47636276Y-28192834D01*
X47650317Y-28196351D01*
X47663946Y-28201228D01*
X47677031Y-28207417D01*
X47689447Y-28214858D01*
X47701073Y-28223481D01*
X47711798Y-28233202D01*
X47721519Y-28243927D01*
X47730142Y-28255553D01*
X47737583Y-28267969D01*
X47743772Y-28281054D01*
X47748649Y-28294683D01*
X47752166Y-28308724D01*
X47754290Y-28323042D01*
X47755000Y-28337500D01*
X47755000Y-28682500D01*
X47754290Y-28696958D01*
X47752166Y-28711276D01*
X47748649Y-28725317D01*
X47743772Y-28738946D01*
X47737583Y-28752031D01*
X47730142Y-28764447D01*
X47721519Y-28776073D01*
X47711798Y-28786798D01*
X47701073Y-28796519D01*
X47689447Y-28805142D01*
X47677031Y-28812583D01*
X47663946Y-28818772D01*
X47650317Y-28823649D01*
X47636276Y-28827166D01*
X47621958Y-28829290D01*
X47607500Y-28830000D01*
X47312500Y-28830000D01*
X47298042Y-28829290D01*
X47283724Y-28827166D01*
X47269683Y-28823649D01*
X47256054Y-28818772D01*
X47242969Y-28812583D01*
X47230553Y-28805142D01*
X47218927Y-28796519D01*
X47208202Y-28786798D01*
X47198481Y-28776073D01*
X47189858Y-28764447D01*
X47182417Y-28752031D01*
X47176228Y-28738946D01*
X47171351Y-28725317D01*
X47167834Y-28711276D01*
X47165710Y-28696958D01*
X47165000Y-28682500D01*
X47165000Y-28337500D01*
X47165710Y-28323042D01*
X47167834Y-28308724D01*
X47171351Y-28294683D01*
X47176228Y-28281054D01*
X47182417Y-28267969D01*
X47189858Y-28255553D01*
X47198481Y-28243927D01*
X47208202Y-28233202D01*
X47218927Y-28223481D01*
X47230553Y-28214858D01*
X47242969Y-28207417D01*
X47256054Y-28201228D01*
X47269683Y-28196351D01*
X47283724Y-28192834D01*
X47298042Y-28190710D01*
X47312500Y-28190000D01*
X47607500Y-28190000D01*
X47621958Y-28190710D01*
X47621958Y-28190710D01*
G37*
D11*
X47460000Y-28510000D03*
D10*
G36*
X50181958Y-26800710D02*
G01*
X50196276Y-26802834D01*
X50210317Y-26806351D01*
X50223946Y-26811228D01*
X50237031Y-26817417D01*
X50249447Y-26824858D01*
X50261073Y-26833481D01*
X50271798Y-26843202D01*
X50281519Y-26853927D01*
X50290142Y-26865553D01*
X50297583Y-26877969D01*
X50303772Y-26891054D01*
X50308649Y-26904683D01*
X50312166Y-26918724D01*
X50314290Y-26933042D01*
X50315000Y-26947500D01*
X50315000Y-27292500D01*
X50314290Y-27306958D01*
X50312166Y-27321276D01*
X50308649Y-27335317D01*
X50303772Y-27348946D01*
X50297583Y-27362031D01*
X50290142Y-27374447D01*
X50281519Y-27386073D01*
X50271798Y-27396798D01*
X50261073Y-27406519D01*
X50249447Y-27415142D01*
X50237031Y-27422583D01*
X50223946Y-27428772D01*
X50210317Y-27433649D01*
X50196276Y-27437166D01*
X50181958Y-27439290D01*
X50167500Y-27440000D01*
X49872500Y-27440000D01*
X49858042Y-27439290D01*
X49843724Y-27437166D01*
X49829683Y-27433649D01*
X49816054Y-27428772D01*
X49802969Y-27422583D01*
X49790553Y-27415142D01*
X49778927Y-27406519D01*
X49768202Y-27396798D01*
X49758481Y-27386073D01*
X49749858Y-27374447D01*
X49742417Y-27362031D01*
X49736228Y-27348946D01*
X49731351Y-27335317D01*
X49727834Y-27321276D01*
X49725710Y-27306958D01*
X49725000Y-27292500D01*
X49725000Y-26947500D01*
X49725710Y-26933042D01*
X49727834Y-26918724D01*
X49731351Y-26904683D01*
X49736228Y-26891054D01*
X49742417Y-26877969D01*
X49749858Y-26865553D01*
X49758481Y-26853927D01*
X49768202Y-26843202D01*
X49778927Y-26833481D01*
X49790553Y-26824858D01*
X49802969Y-26817417D01*
X49816054Y-26811228D01*
X49829683Y-26806351D01*
X49843724Y-26802834D01*
X49858042Y-26800710D01*
X49872500Y-26800000D01*
X50167500Y-26800000D01*
X50181958Y-26800710D01*
X50181958Y-26800710D01*
G37*
D11*
X50020000Y-27120000D03*
D10*
G36*
X49211958Y-26800710D02*
G01*
X49226276Y-26802834D01*
X49240317Y-26806351D01*
X49253946Y-26811228D01*
X49267031Y-26817417D01*
X49279447Y-26824858D01*
X49291073Y-26833481D01*
X49301798Y-26843202D01*
X49311519Y-26853927D01*
X49320142Y-26865553D01*
X49327583Y-26877969D01*
X49333772Y-26891054D01*
X49338649Y-26904683D01*
X49342166Y-26918724D01*
X49344290Y-26933042D01*
X49345000Y-26947500D01*
X49345000Y-27292500D01*
X49344290Y-27306958D01*
X49342166Y-27321276D01*
X49338649Y-27335317D01*
X49333772Y-27348946D01*
X49327583Y-27362031D01*
X49320142Y-27374447D01*
X49311519Y-27386073D01*
X49301798Y-27396798D01*
X49291073Y-27406519D01*
X49279447Y-27415142D01*
X49267031Y-27422583D01*
X49253946Y-27428772D01*
X49240317Y-27433649D01*
X49226276Y-27437166D01*
X49211958Y-27439290D01*
X49197500Y-27440000D01*
X48902500Y-27440000D01*
X48888042Y-27439290D01*
X48873724Y-27437166D01*
X48859683Y-27433649D01*
X48846054Y-27428772D01*
X48832969Y-27422583D01*
X48820553Y-27415142D01*
X48808927Y-27406519D01*
X48798202Y-27396798D01*
X48788481Y-27386073D01*
X48779858Y-27374447D01*
X48772417Y-27362031D01*
X48766228Y-27348946D01*
X48761351Y-27335317D01*
X48757834Y-27321276D01*
X48755710Y-27306958D01*
X48755000Y-27292500D01*
X48755000Y-26947500D01*
X48755710Y-26933042D01*
X48757834Y-26918724D01*
X48761351Y-26904683D01*
X48766228Y-26891054D01*
X48772417Y-26877969D01*
X48779858Y-26865553D01*
X48788481Y-26853927D01*
X48798202Y-26843202D01*
X48808927Y-26833481D01*
X48820553Y-26824858D01*
X48832969Y-26817417D01*
X48846054Y-26811228D01*
X48859683Y-26806351D01*
X48873724Y-26802834D01*
X48888042Y-26800710D01*
X48902500Y-26800000D01*
X49197500Y-26800000D01*
X49211958Y-26800710D01*
X49211958Y-26800710D01*
G37*
D11*
X49050000Y-27120000D03*
D10*
G36*
X51291958Y-26820710D02*
G01*
X51306276Y-26822834D01*
X51320317Y-26826351D01*
X51333946Y-26831228D01*
X51347031Y-26837417D01*
X51359447Y-26844858D01*
X51371073Y-26853481D01*
X51381798Y-26863202D01*
X51391519Y-26873927D01*
X51400142Y-26885553D01*
X51407583Y-26897969D01*
X51413772Y-26911054D01*
X51418649Y-26924683D01*
X51422166Y-26938724D01*
X51424290Y-26953042D01*
X51425000Y-26967500D01*
X51425000Y-27312500D01*
X51424290Y-27326958D01*
X51422166Y-27341276D01*
X51418649Y-27355317D01*
X51413772Y-27368946D01*
X51407583Y-27382031D01*
X51400142Y-27394447D01*
X51391519Y-27406073D01*
X51381798Y-27416798D01*
X51371073Y-27426519D01*
X51359447Y-27435142D01*
X51347031Y-27442583D01*
X51333946Y-27448772D01*
X51320317Y-27453649D01*
X51306276Y-27457166D01*
X51291958Y-27459290D01*
X51277500Y-27460000D01*
X50982500Y-27460000D01*
X50968042Y-27459290D01*
X50953724Y-27457166D01*
X50939683Y-27453649D01*
X50926054Y-27448772D01*
X50912969Y-27442583D01*
X50900553Y-27435142D01*
X50888927Y-27426519D01*
X50878202Y-27416798D01*
X50868481Y-27406073D01*
X50859858Y-27394447D01*
X50852417Y-27382031D01*
X50846228Y-27368946D01*
X50841351Y-27355317D01*
X50837834Y-27341276D01*
X50835710Y-27326958D01*
X50835000Y-27312500D01*
X50835000Y-26967500D01*
X50835710Y-26953042D01*
X50837834Y-26938724D01*
X50841351Y-26924683D01*
X50846228Y-26911054D01*
X50852417Y-26897969D01*
X50859858Y-26885553D01*
X50868481Y-26873927D01*
X50878202Y-26863202D01*
X50888927Y-26853481D01*
X50900553Y-26844858D01*
X50912969Y-26837417D01*
X50926054Y-26831228D01*
X50939683Y-26826351D01*
X50953724Y-26822834D01*
X50968042Y-26820710D01*
X50982500Y-26820000D01*
X51277500Y-26820000D01*
X51291958Y-26820710D01*
X51291958Y-26820710D01*
G37*
D11*
X51130000Y-27140000D03*
D10*
G36*
X52261958Y-26820710D02*
G01*
X52276276Y-26822834D01*
X52290317Y-26826351D01*
X52303946Y-26831228D01*
X52317031Y-26837417D01*
X52329447Y-26844858D01*
X52341073Y-26853481D01*
X52351798Y-26863202D01*
X52361519Y-26873927D01*
X52370142Y-26885553D01*
X52377583Y-26897969D01*
X52383772Y-26911054D01*
X52388649Y-26924683D01*
X52392166Y-26938724D01*
X52394290Y-26953042D01*
X52395000Y-26967500D01*
X52395000Y-27312500D01*
X52394290Y-27326958D01*
X52392166Y-27341276D01*
X52388649Y-27355317D01*
X52383772Y-27368946D01*
X52377583Y-27382031D01*
X52370142Y-27394447D01*
X52361519Y-27406073D01*
X52351798Y-27416798D01*
X52341073Y-27426519D01*
X52329447Y-27435142D01*
X52317031Y-27442583D01*
X52303946Y-27448772D01*
X52290317Y-27453649D01*
X52276276Y-27457166D01*
X52261958Y-27459290D01*
X52247500Y-27460000D01*
X51952500Y-27460000D01*
X51938042Y-27459290D01*
X51923724Y-27457166D01*
X51909683Y-27453649D01*
X51896054Y-27448772D01*
X51882969Y-27442583D01*
X51870553Y-27435142D01*
X51858927Y-27426519D01*
X51848202Y-27416798D01*
X51838481Y-27406073D01*
X51829858Y-27394447D01*
X51822417Y-27382031D01*
X51816228Y-27368946D01*
X51811351Y-27355317D01*
X51807834Y-27341276D01*
X51805710Y-27326958D01*
X51805000Y-27312500D01*
X51805000Y-26967500D01*
X51805710Y-26953042D01*
X51807834Y-26938724D01*
X51811351Y-26924683D01*
X51816228Y-26911054D01*
X51822417Y-26897969D01*
X51829858Y-26885553D01*
X51838481Y-26873927D01*
X51848202Y-26863202D01*
X51858927Y-26853481D01*
X51870553Y-26844858D01*
X51882969Y-26837417D01*
X51896054Y-26831228D01*
X51909683Y-26826351D01*
X51923724Y-26822834D01*
X51938042Y-26820710D01*
X51952500Y-26820000D01*
X52247500Y-26820000D01*
X52261958Y-26820710D01*
X52261958Y-26820710D01*
G37*
D11*
X52100000Y-27140000D03*
D12*
X49452000Y-29052000D03*
X49960000Y-29052000D03*
X50468000Y-29052000D03*
X49452000Y-29560000D03*
X50468000Y-29560000D03*
X49452000Y-30068000D03*
X49960000Y-30068000D03*
X50468000Y-30068000D03*
D10*
G36*
X51974504Y-32851204D02*
G01*
X51998773Y-32854804D01*
X52022571Y-32860765D01*
X52045671Y-32869030D01*
X52067849Y-32879520D01*
X52088893Y-32892133D01*
X52108598Y-32906747D01*
X52126777Y-32923223D01*
X52143253Y-32941402D01*
X52157867Y-32961107D01*
X52170480Y-32982151D01*
X52180970Y-33004329D01*
X52189235Y-33027429D01*
X52195196Y-33051227D01*
X52198796Y-33075496D01*
X52200000Y-33100000D01*
X52200000Y-33600000D01*
X52198796Y-33624504D01*
X52195196Y-33648773D01*
X52189235Y-33672571D01*
X52180970Y-33695671D01*
X52170480Y-33717849D01*
X52157867Y-33738893D01*
X52143253Y-33758598D01*
X52126777Y-33776777D01*
X52108598Y-33793253D01*
X52088893Y-33807867D01*
X52067849Y-33820480D01*
X52045671Y-33830970D01*
X52022571Y-33839235D01*
X51998773Y-33845196D01*
X51974504Y-33848796D01*
X51950000Y-33850000D01*
X50450000Y-33850000D01*
X50425496Y-33848796D01*
X50401227Y-33845196D01*
X50377429Y-33839235D01*
X50354329Y-33830970D01*
X50332151Y-33820480D01*
X50311107Y-33807867D01*
X50291402Y-33793253D01*
X50273223Y-33776777D01*
X50256747Y-33758598D01*
X50242133Y-33738893D01*
X50229520Y-33717849D01*
X50219030Y-33695671D01*
X50210765Y-33672571D01*
X50204804Y-33648773D01*
X50201204Y-33624504D01*
X50200000Y-33600000D01*
X50200000Y-33100000D01*
X50201204Y-33075496D01*
X50204804Y-33051227D01*
X50210765Y-33027429D01*
X50219030Y-33004329D01*
X50229520Y-32982151D01*
X50242133Y-32961107D01*
X50256747Y-32941402D01*
X50273223Y-32923223D01*
X50291402Y-32906747D01*
X50311107Y-32892133D01*
X50332151Y-32879520D01*
X50354329Y-32869030D01*
X50377429Y-32860765D01*
X50401227Y-32854804D01*
X50425496Y-32851204D01*
X50450000Y-32850000D01*
X51950000Y-32850000D01*
X51974504Y-32851204D01*
X51974504Y-32851204D01*
G37*
D13*
X51200000Y-33350000D03*
D10*
G36*
X52856958Y-28000710D02*
G01*
X52871276Y-28002834D01*
X52885317Y-28006351D01*
X52898946Y-28011228D01*
X52912031Y-28017417D01*
X52924447Y-28024858D01*
X52936073Y-28033481D01*
X52946798Y-28043202D01*
X52956519Y-28053927D01*
X52965142Y-28065553D01*
X52972583Y-28077969D01*
X52978772Y-28091054D01*
X52983649Y-28104683D01*
X52987166Y-28118724D01*
X52989290Y-28133042D01*
X52990000Y-28147500D01*
X52990000Y-28442500D01*
X52989290Y-28456958D01*
X52987166Y-28471276D01*
X52983649Y-28485317D01*
X52978772Y-28498946D01*
X52972583Y-28512031D01*
X52965142Y-28524447D01*
X52956519Y-28536073D01*
X52946798Y-28546798D01*
X52936073Y-28556519D01*
X52924447Y-28565142D01*
X52912031Y-28572583D01*
X52898946Y-28578772D01*
X52885317Y-28583649D01*
X52871276Y-28587166D01*
X52856958Y-28589290D01*
X52842500Y-28590000D01*
X52497500Y-28590000D01*
X52483042Y-28589290D01*
X52468724Y-28587166D01*
X52454683Y-28583649D01*
X52441054Y-28578772D01*
X52427969Y-28572583D01*
X52415553Y-28565142D01*
X52403927Y-28556519D01*
X52393202Y-28546798D01*
X52383481Y-28536073D01*
X52374858Y-28524447D01*
X52367417Y-28512031D01*
X52361228Y-28498946D01*
X52356351Y-28485317D01*
X52352834Y-28471276D01*
X52350710Y-28456958D01*
X52350000Y-28442500D01*
X52350000Y-28147500D01*
X52350710Y-28133042D01*
X52352834Y-28118724D01*
X52356351Y-28104683D01*
X52361228Y-28091054D01*
X52367417Y-28077969D01*
X52374858Y-28065553D01*
X52383481Y-28053927D01*
X52393202Y-28043202D01*
X52403927Y-28033481D01*
X52415553Y-28024858D01*
X52427969Y-28017417D01*
X52441054Y-28011228D01*
X52454683Y-28006351D01*
X52468724Y-28002834D01*
X52483042Y-28000710D01*
X52497500Y-28000000D01*
X52842500Y-28000000D01*
X52856958Y-28000710D01*
X52856958Y-28000710D01*
G37*
D11*
X52670000Y-28295000D03*
D10*
G36*
X52856958Y-28970710D02*
G01*
X52871276Y-28972834D01*
X52885317Y-28976351D01*
X52898946Y-28981228D01*
X52912031Y-28987417D01*
X52924447Y-28994858D01*
X52936073Y-29003481D01*
X52946798Y-29013202D01*
X52956519Y-29023927D01*
X52965142Y-29035553D01*
X52972583Y-29047969D01*
X52978772Y-29061054D01*
X52983649Y-29074683D01*
X52987166Y-29088724D01*
X52989290Y-29103042D01*
X52990000Y-29117500D01*
X52990000Y-29412500D01*
X52989290Y-29426958D01*
X52987166Y-29441276D01*
X52983649Y-29455317D01*
X52978772Y-29468946D01*
X52972583Y-29482031D01*
X52965142Y-29494447D01*
X52956519Y-29506073D01*
X52946798Y-29516798D01*
X52936073Y-29526519D01*
X52924447Y-29535142D01*
X52912031Y-29542583D01*
X52898946Y-29548772D01*
X52885317Y-29553649D01*
X52871276Y-29557166D01*
X52856958Y-29559290D01*
X52842500Y-29560000D01*
X52497500Y-29560000D01*
X52483042Y-29559290D01*
X52468724Y-29557166D01*
X52454683Y-29553649D01*
X52441054Y-29548772D01*
X52427969Y-29542583D01*
X52415553Y-29535142D01*
X52403927Y-29526519D01*
X52393202Y-29516798D01*
X52383481Y-29506073D01*
X52374858Y-29494447D01*
X52367417Y-29482031D01*
X52361228Y-29468946D01*
X52356351Y-29455317D01*
X52352834Y-29441276D01*
X52350710Y-29426958D01*
X52350000Y-29412500D01*
X52350000Y-29117500D01*
X52350710Y-29103042D01*
X52352834Y-29088724D01*
X52356351Y-29074683D01*
X52361228Y-29061054D01*
X52367417Y-29047969D01*
X52374858Y-29035553D01*
X52383481Y-29023927D01*
X52393202Y-29013202D01*
X52403927Y-29003481D01*
X52415553Y-28994858D01*
X52427969Y-28987417D01*
X52441054Y-28981228D01*
X52454683Y-28976351D01*
X52468724Y-28972834D01*
X52483042Y-28970710D01*
X52497500Y-28970000D01*
X52842500Y-28970000D01*
X52856958Y-28970710D01*
X52856958Y-28970710D01*
G37*
D11*
X52670000Y-29265000D03*
D10*
G36*
X54086958Y-28970710D02*
G01*
X54101276Y-28972834D01*
X54115317Y-28976351D01*
X54128946Y-28981228D01*
X54142031Y-28987417D01*
X54154447Y-28994858D01*
X54166073Y-29003481D01*
X54176798Y-29013202D01*
X54186519Y-29023927D01*
X54195142Y-29035553D01*
X54202583Y-29047969D01*
X54208772Y-29061054D01*
X54213649Y-29074683D01*
X54217166Y-29088724D01*
X54219290Y-29103042D01*
X54220000Y-29117500D01*
X54220000Y-29412500D01*
X54219290Y-29426958D01*
X54217166Y-29441276D01*
X54213649Y-29455317D01*
X54208772Y-29468946D01*
X54202583Y-29482031D01*
X54195142Y-29494447D01*
X54186519Y-29506073D01*
X54176798Y-29516798D01*
X54166073Y-29526519D01*
X54154447Y-29535142D01*
X54142031Y-29542583D01*
X54128946Y-29548772D01*
X54115317Y-29553649D01*
X54101276Y-29557166D01*
X54086958Y-29559290D01*
X54072500Y-29560000D01*
X53727500Y-29560000D01*
X53713042Y-29559290D01*
X53698724Y-29557166D01*
X53684683Y-29553649D01*
X53671054Y-29548772D01*
X53657969Y-29542583D01*
X53645553Y-29535142D01*
X53633927Y-29526519D01*
X53623202Y-29516798D01*
X53613481Y-29506073D01*
X53604858Y-29494447D01*
X53597417Y-29482031D01*
X53591228Y-29468946D01*
X53586351Y-29455317D01*
X53582834Y-29441276D01*
X53580710Y-29426958D01*
X53580000Y-29412500D01*
X53580000Y-29117500D01*
X53580710Y-29103042D01*
X53582834Y-29088724D01*
X53586351Y-29074683D01*
X53591228Y-29061054D01*
X53597417Y-29047969D01*
X53604858Y-29035553D01*
X53613481Y-29023927D01*
X53623202Y-29013202D01*
X53633927Y-29003481D01*
X53645553Y-28994858D01*
X53657969Y-28987417D01*
X53671054Y-28981228D01*
X53684683Y-28976351D01*
X53698724Y-28972834D01*
X53713042Y-28970710D01*
X53727500Y-28970000D01*
X54072500Y-28970000D01*
X54086958Y-28970710D01*
X54086958Y-28970710D01*
G37*
D11*
X53900000Y-29265000D03*
D10*
G36*
X54086958Y-28000710D02*
G01*
X54101276Y-28002834D01*
X54115317Y-28006351D01*
X54128946Y-28011228D01*
X54142031Y-28017417D01*
X54154447Y-28024858D01*
X54166073Y-28033481D01*
X54176798Y-28043202D01*
X54186519Y-28053927D01*
X54195142Y-28065553D01*
X54202583Y-28077969D01*
X54208772Y-28091054D01*
X54213649Y-28104683D01*
X54217166Y-28118724D01*
X54219290Y-28133042D01*
X54220000Y-28147500D01*
X54220000Y-28442500D01*
X54219290Y-28456958D01*
X54217166Y-28471276D01*
X54213649Y-28485317D01*
X54208772Y-28498946D01*
X54202583Y-28512031D01*
X54195142Y-28524447D01*
X54186519Y-28536073D01*
X54176798Y-28546798D01*
X54166073Y-28556519D01*
X54154447Y-28565142D01*
X54142031Y-28572583D01*
X54128946Y-28578772D01*
X54115317Y-28583649D01*
X54101276Y-28587166D01*
X54086958Y-28589290D01*
X54072500Y-28590000D01*
X53727500Y-28590000D01*
X53713042Y-28589290D01*
X53698724Y-28587166D01*
X53684683Y-28583649D01*
X53671054Y-28578772D01*
X53657969Y-28572583D01*
X53645553Y-28565142D01*
X53633927Y-28556519D01*
X53623202Y-28546798D01*
X53613481Y-28536073D01*
X53604858Y-28524447D01*
X53597417Y-28512031D01*
X53591228Y-28498946D01*
X53586351Y-28485317D01*
X53582834Y-28471276D01*
X53580710Y-28456958D01*
X53580000Y-28442500D01*
X53580000Y-28147500D01*
X53580710Y-28133042D01*
X53582834Y-28118724D01*
X53586351Y-28104683D01*
X53591228Y-28091054D01*
X53597417Y-28077969D01*
X53604858Y-28065553D01*
X53613481Y-28053927D01*
X53623202Y-28043202D01*
X53633927Y-28033481D01*
X53645553Y-28024858D01*
X53657969Y-28017417D01*
X53671054Y-28011228D01*
X53684683Y-28006351D01*
X53698724Y-28002834D01*
X53713042Y-28000710D01*
X53727500Y-28000000D01*
X54072500Y-28000000D01*
X54086958Y-28000710D01*
X54086958Y-28000710D01*
G37*
D11*
X53900000Y-28295000D03*
D10*
G36*
X49724458Y-31660710D02*
G01*
X49738776Y-31662834D01*
X49752817Y-31666351D01*
X49766446Y-31671228D01*
X49779531Y-31677417D01*
X49791947Y-31684858D01*
X49803573Y-31693481D01*
X49814298Y-31703202D01*
X49824019Y-31713927D01*
X49832642Y-31725553D01*
X49840083Y-31737969D01*
X49846272Y-31751054D01*
X49851149Y-31764683D01*
X49854666Y-31778724D01*
X49856790Y-31793042D01*
X49857500Y-31807500D01*
X49857500Y-32152500D01*
X49856790Y-32166958D01*
X49854666Y-32181276D01*
X49851149Y-32195317D01*
X49846272Y-32208946D01*
X49840083Y-32222031D01*
X49832642Y-32234447D01*
X49824019Y-32246073D01*
X49814298Y-32256798D01*
X49803573Y-32266519D01*
X49791947Y-32275142D01*
X49779531Y-32282583D01*
X49766446Y-32288772D01*
X49752817Y-32293649D01*
X49738776Y-32297166D01*
X49724458Y-32299290D01*
X49710000Y-32300000D01*
X49415000Y-32300000D01*
X49400542Y-32299290D01*
X49386224Y-32297166D01*
X49372183Y-32293649D01*
X49358554Y-32288772D01*
X49345469Y-32282583D01*
X49333053Y-32275142D01*
X49321427Y-32266519D01*
X49310702Y-32256798D01*
X49300981Y-32246073D01*
X49292358Y-32234447D01*
X49284917Y-32222031D01*
X49278728Y-32208946D01*
X49273851Y-32195317D01*
X49270334Y-32181276D01*
X49268210Y-32166958D01*
X49267500Y-32152500D01*
X49267500Y-31807500D01*
X49268210Y-31793042D01*
X49270334Y-31778724D01*
X49273851Y-31764683D01*
X49278728Y-31751054D01*
X49284917Y-31737969D01*
X49292358Y-31725553D01*
X49300981Y-31713927D01*
X49310702Y-31703202D01*
X49321427Y-31693481D01*
X49333053Y-31684858D01*
X49345469Y-31677417D01*
X49358554Y-31671228D01*
X49372183Y-31666351D01*
X49386224Y-31662834D01*
X49400542Y-31660710D01*
X49415000Y-31660000D01*
X49710000Y-31660000D01*
X49724458Y-31660710D01*
X49724458Y-31660710D01*
G37*
D11*
X49562500Y-31980000D03*
D10*
G36*
X50694458Y-31660710D02*
G01*
X50708776Y-31662834D01*
X50722817Y-31666351D01*
X50736446Y-31671228D01*
X50749531Y-31677417D01*
X50761947Y-31684858D01*
X50773573Y-31693481D01*
X50784298Y-31703202D01*
X50794019Y-31713927D01*
X50802642Y-31725553D01*
X50810083Y-31737969D01*
X50816272Y-31751054D01*
X50821149Y-31764683D01*
X50824666Y-31778724D01*
X50826790Y-31793042D01*
X50827500Y-31807500D01*
X50827500Y-32152500D01*
X50826790Y-32166958D01*
X50824666Y-32181276D01*
X50821149Y-32195317D01*
X50816272Y-32208946D01*
X50810083Y-32222031D01*
X50802642Y-32234447D01*
X50794019Y-32246073D01*
X50784298Y-32256798D01*
X50773573Y-32266519D01*
X50761947Y-32275142D01*
X50749531Y-32282583D01*
X50736446Y-32288772D01*
X50722817Y-32293649D01*
X50708776Y-32297166D01*
X50694458Y-32299290D01*
X50680000Y-32300000D01*
X50385000Y-32300000D01*
X50370542Y-32299290D01*
X50356224Y-32297166D01*
X50342183Y-32293649D01*
X50328554Y-32288772D01*
X50315469Y-32282583D01*
X50303053Y-32275142D01*
X50291427Y-32266519D01*
X50280702Y-32256798D01*
X50270981Y-32246073D01*
X50262358Y-32234447D01*
X50254917Y-32222031D01*
X50248728Y-32208946D01*
X50243851Y-32195317D01*
X50240334Y-32181276D01*
X50238210Y-32166958D01*
X50237500Y-32152500D01*
X50237500Y-31807500D01*
X50238210Y-31793042D01*
X50240334Y-31778724D01*
X50243851Y-31764683D01*
X50248728Y-31751054D01*
X50254917Y-31737969D01*
X50262358Y-31725553D01*
X50270981Y-31713927D01*
X50280702Y-31703202D01*
X50291427Y-31693481D01*
X50303053Y-31684858D01*
X50315469Y-31677417D01*
X50328554Y-31671228D01*
X50342183Y-31666351D01*
X50356224Y-31662834D01*
X50370542Y-31660710D01*
X50385000Y-31660000D01*
X50680000Y-31660000D01*
X50694458Y-31660710D01*
X50694458Y-31660710D01*
G37*
D11*
X50532500Y-31980000D03*
D10*
G36*
X48451958Y-33380710D02*
G01*
X48466276Y-33382834D01*
X48480317Y-33386351D01*
X48493946Y-33391228D01*
X48507031Y-33397417D01*
X48519447Y-33404858D01*
X48531073Y-33413481D01*
X48541798Y-33423202D01*
X48551519Y-33433927D01*
X48560142Y-33445553D01*
X48567583Y-33457969D01*
X48573772Y-33471054D01*
X48578649Y-33484683D01*
X48582166Y-33498724D01*
X48584290Y-33513042D01*
X48585000Y-33527500D01*
X48585000Y-33872500D01*
X48584290Y-33886958D01*
X48582166Y-33901276D01*
X48578649Y-33915317D01*
X48573772Y-33928946D01*
X48567583Y-33942031D01*
X48560142Y-33954447D01*
X48551519Y-33966073D01*
X48541798Y-33976798D01*
X48531073Y-33986519D01*
X48519447Y-33995142D01*
X48507031Y-34002583D01*
X48493946Y-34008772D01*
X48480317Y-34013649D01*
X48466276Y-34017166D01*
X48451958Y-34019290D01*
X48437500Y-34020000D01*
X48142500Y-34020000D01*
X48128042Y-34019290D01*
X48113724Y-34017166D01*
X48099683Y-34013649D01*
X48086054Y-34008772D01*
X48072969Y-34002583D01*
X48060553Y-33995142D01*
X48048927Y-33986519D01*
X48038202Y-33976798D01*
X48028481Y-33966073D01*
X48019858Y-33954447D01*
X48012417Y-33942031D01*
X48006228Y-33928946D01*
X48001351Y-33915317D01*
X47997834Y-33901276D01*
X47995710Y-33886958D01*
X47995000Y-33872500D01*
X47995000Y-33527500D01*
X47995710Y-33513042D01*
X47997834Y-33498724D01*
X48001351Y-33484683D01*
X48006228Y-33471054D01*
X48012417Y-33457969D01*
X48019858Y-33445553D01*
X48028481Y-33433927D01*
X48038202Y-33423202D01*
X48048927Y-33413481D01*
X48060553Y-33404858D01*
X48072969Y-33397417D01*
X48086054Y-33391228D01*
X48099683Y-33386351D01*
X48113724Y-33382834D01*
X48128042Y-33380710D01*
X48142500Y-33380000D01*
X48437500Y-33380000D01*
X48451958Y-33380710D01*
X48451958Y-33380710D01*
G37*
D11*
X48290000Y-33700000D03*
D10*
G36*
X49421958Y-33380710D02*
G01*
X49436276Y-33382834D01*
X49450317Y-33386351D01*
X49463946Y-33391228D01*
X49477031Y-33397417D01*
X49489447Y-33404858D01*
X49501073Y-33413481D01*
X49511798Y-33423202D01*
X49521519Y-33433927D01*
X49530142Y-33445553D01*
X49537583Y-33457969D01*
X49543772Y-33471054D01*
X49548649Y-33484683D01*
X49552166Y-33498724D01*
X49554290Y-33513042D01*
X49555000Y-33527500D01*
X49555000Y-33872500D01*
X49554290Y-33886958D01*
X49552166Y-33901276D01*
X49548649Y-33915317D01*
X49543772Y-33928946D01*
X49537583Y-33942031D01*
X49530142Y-33954447D01*
X49521519Y-33966073D01*
X49511798Y-33976798D01*
X49501073Y-33986519D01*
X49489447Y-33995142D01*
X49477031Y-34002583D01*
X49463946Y-34008772D01*
X49450317Y-34013649D01*
X49436276Y-34017166D01*
X49421958Y-34019290D01*
X49407500Y-34020000D01*
X49112500Y-34020000D01*
X49098042Y-34019290D01*
X49083724Y-34017166D01*
X49069683Y-34013649D01*
X49056054Y-34008772D01*
X49042969Y-34002583D01*
X49030553Y-33995142D01*
X49018927Y-33986519D01*
X49008202Y-33976798D01*
X48998481Y-33966073D01*
X48989858Y-33954447D01*
X48982417Y-33942031D01*
X48976228Y-33928946D01*
X48971351Y-33915317D01*
X48967834Y-33901276D01*
X48965710Y-33886958D01*
X48965000Y-33872500D01*
X48965000Y-33527500D01*
X48965710Y-33513042D01*
X48967834Y-33498724D01*
X48971351Y-33484683D01*
X48976228Y-33471054D01*
X48982417Y-33457969D01*
X48989858Y-33445553D01*
X48998481Y-33433927D01*
X49008202Y-33423202D01*
X49018927Y-33413481D01*
X49030553Y-33404858D01*
X49042969Y-33397417D01*
X49056054Y-33391228D01*
X49069683Y-33386351D01*
X49083724Y-33382834D01*
X49098042Y-33380710D01*
X49112500Y-33380000D01*
X49407500Y-33380000D01*
X49421958Y-33380710D01*
X49421958Y-33380710D01*
G37*
D11*
X49260000Y-33700000D03*
D10*
G36*
X48456958Y-32380710D02*
G01*
X48471276Y-32382834D01*
X48485317Y-32386351D01*
X48498946Y-32391228D01*
X48512031Y-32397417D01*
X48524447Y-32404858D01*
X48536073Y-32413481D01*
X48546798Y-32423202D01*
X48556519Y-32433927D01*
X48565142Y-32445553D01*
X48572583Y-32457969D01*
X48578772Y-32471054D01*
X48583649Y-32484683D01*
X48587166Y-32498724D01*
X48589290Y-32513042D01*
X48590000Y-32527500D01*
X48590000Y-32872500D01*
X48589290Y-32886958D01*
X48587166Y-32901276D01*
X48583649Y-32915317D01*
X48578772Y-32928946D01*
X48572583Y-32942031D01*
X48565142Y-32954447D01*
X48556519Y-32966073D01*
X48546798Y-32976798D01*
X48536073Y-32986519D01*
X48524447Y-32995142D01*
X48512031Y-33002583D01*
X48498946Y-33008772D01*
X48485317Y-33013649D01*
X48471276Y-33017166D01*
X48456958Y-33019290D01*
X48442500Y-33020000D01*
X48147500Y-33020000D01*
X48133042Y-33019290D01*
X48118724Y-33017166D01*
X48104683Y-33013649D01*
X48091054Y-33008772D01*
X48077969Y-33002583D01*
X48065553Y-32995142D01*
X48053927Y-32986519D01*
X48043202Y-32976798D01*
X48033481Y-32966073D01*
X48024858Y-32954447D01*
X48017417Y-32942031D01*
X48011228Y-32928946D01*
X48006351Y-32915317D01*
X48002834Y-32901276D01*
X48000710Y-32886958D01*
X48000000Y-32872500D01*
X48000000Y-32527500D01*
X48000710Y-32513042D01*
X48002834Y-32498724D01*
X48006351Y-32484683D01*
X48011228Y-32471054D01*
X48017417Y-32457969D01*
X48024858Y-32445553D01*
X48033481Y-32433927D01*
X48043202Y-32423202D01*
X48053927Y-32413481D01*
X48065553Y-32404858D01*
X48077969Y-32397417D01*
X48091054Y-32391228D01*
X48104683Y-32386351D01*
X48118724Y-32382834D01*
X48133042Y-32380710D01*
X48147500Y-32380000D01*
X48442500Y-32380000D01*
X48456958Y-32380710D01*
X48456958Y-32380710D01*
G37*
D11*
X48295000Y-32700000D03*
D10*
G36*
X47486958Y-32380710D02*
G01*
X47501276Y-32382834D01*
X47515317Y-32386351D01*
X47528946Y-32391228D01*
X47542031Y-32397417D01*
X47554447Y-32404858D01*
X47566073Y-32413481D01*
X47576798Y-32423202D01*
X47586519Y-32433927D01*
X47595142Y-32445553D01*
X47602583Y-32457969D01*
X47608772Y-32471054D01*
X47613649Y-32484683D01*
X47617166Y-32498724D01*
X47619290Y-32513042D01*
X47620000Y-32527500D01*
X47620000Y-32872500D01*
X47619290Y-32886958D01*
X47617166Y-32901276D01*
X47613649Y-32915317D01*
X47608772Y-32928946D01*
X47602583Y-32942031D01*
X47595142Y-32954447D01*
X47586519Y-32966073D01*
X47576798Y-32976798D01*
X47566073Y-32986519D01*
X47554447Y-32995142D01*
X47542031Y-33002583D01*
X47528946Y-33008772D01*
X47515317Y-33013649D01*
X47501276Y-33017166D01*
X47486958Y-33019290D01*
X47472500Y-33020000D01*
X47177500Y-33020000D01*
X47163042Y-33019290D01*
X47148724Y-33017166D01*
X47134683Y-33013649D01*
X47121054Y-33008772D01*
X47107969Y-33002583D01*
X47095553Y-32995142D01*
X47083927Y-32986519D01*
X47073202Y-32976798D01*
X47063481Y-32966073D01*
X47054858Y-32954447D01*
X47047417Y-32942031D01*
X47041228Y-32928946D01*
X47036351Y-32915317D01*
X47032834Y-32901276D01*
X47030710Y-32886958D01*
X47030000Y-32872500D01*
X47030000Y-32527500D01*
X47030710Y-32513042D01*
X47032834Y-32498724D01*
X47036351Y-32484683D01*
X47041228Y-32471054D01*
X47047417Y-32457969D01*
X47054858Y-32445553D01*
X47063481Y-32433927D01*
X47073202Y-32423202D01*
X47083927Y-32413481D01*
X47095553Y-32404858D01*
X47107969Y-32397417D01*
X47121054Y-32391228D01*
X47134683Y-32386351D01*
X47148724Y-32382834D01*
X47163042Y-32380710D01*
X47177500Y-32380000D01*
X47472500Y-32380000D01*
X47486958Y-32380710D01*
X47486958Y-32380710D01*
G37*
D11*
X47325000Y-32700000D03*
M02*
