G04 #@! TF.GenerationSoftware,KiCad,Pcbnew,(5.1.2)-2*
G04 #@! TF.CreationDate,2019-08-20T12:10:41-04:00*
G04 #@! TF.ProjectId,ActiveElectrodes2,41637469-7665-4456-9c65-6374726f6465,rev?*
G04 #@! TF.SameCoordinates,Original*
G04 #@! TF.FileFunction,Legend,Bot*
G04 #@! TF.FilePolarity,Positive*
%FSLAX46Y46*%
G04 Gerber Fmt 4.6, Leading zero omitted, Abs format (unit mm)*
G04 Created by KiCad (PCBNEW (5.1.2)-2) date 2019-08-20 12:10:41*
%MOMM*%
%LPD*%
G04 APERTURE LIST*
%ADD10C,0.100000*%
%ADD11C,0.120000*%
%ADD12C,0.090000*%
G04 APERTURE END LIST*
D10*
X48920952Y-29710000D02*
X48968571Y-29686190D01*
X49040000Y-29686190D01*
X49111428Y-29710000D01*
X49159047Y-29757619D01*
X49182857Y-29805238D01*
X49206666Y-29900476D01*
X49206666Y-29971904D01*
X49182857Y-30067142D01*
X49159047Y-30114761D01*
X49111428Y-30162380D01*
X49040000Y-30186190D01*
X48992380Y-30186190D01*
X48920952Y-30162380D01*
X48897142Y-30138571D01*
X48897142Y-29971904D01*
X48992380Y-29971904D01*
X48682857Y-30186190D02*
X48682857Y-29686190D01*
X48397142Y-30186190D01*
X48397142Y-29686190D01*
X48159047Y-30186190D02*
X48159047Y-29686190D01*
X48040000Y-29686190D01*
X47968571Y-29710000D01*
X47920952Y-29757619D01*
X47897142Y-29805238D01*
X47873333Y-29900476D01*
X47873333Y-29971904D01*
X47897142Y-30067142D01*
X47920952Y-30114761D01*
X47968571Y-30162380D01*
X48040000Y-30186190D01*
X48159047Y-30186190D01*
X52346666Y-25352857D02*
X52346666Y-25852857D01*
X52346666Y-25376666D02*
X52299047Y-25352857D01*
X52203809Y-25352857D01*
X52156190Y-25376666D01*
X52132380Y-25400476D01*
X52108571Y-25448095D01*
X52108571Y-25590952D01*
X52132380Y-25638571D01*
X52156190Y-25662380D01*
X52203809Y-25686190D01*
X52299047Y-25686190D01*
X52346666Y-25662380D01*
X51894285Y-25686190D02*
X51894285Y-25352857D01*
X51894285Y-25448095D02*
X51870476Y-25400476D01*
X51846666Y-25376666D01*
X51799047Y-25352857D01*
X51751428Y-25352857D01*
X51394285Y-25662380D02*
X51441904Y-25686190D01*
X51537142Y-25686190D01*
X51584761Y-25662380D01*
X51608571Y-25614761D01*
X51608571Y-25424285D01*
X51584761Y-25376666D01*
X51537142Y-25352857D01*
X51441904Y-25352857D01*
X51394285Y-25376666D01*
X51370476Y-25424285D01*
X51370476Y-25471904D01*
X51608571Y-25519523D01*
X50941904Y-25686190D02*
X50941904Y-25424285D01*
X50965714Y-25376666D01*
X51013333Y-25352857D01*
X51108571Y-25352857D01*
X51156190Y-25376666D01*
X50941904Y-25662380D02*
X50989523Y-25686190D01*
X51108571Y-25686190D01*
X51156190Y-25662380D01*
X51180000Y-25614761D01*
X51180000Y-25567142D01*
X51156190Y-25519523D01*
X51108571Y-25495714D01*
X50989523Y-25495714D01*
X50941904Y-25471904D01*
X50703809Y-25686190D02*
X50703809Y-25352857D01*
X50703809Y-25400476D02*
X50680000Y-25376666D01*
X50632380Y-25352857D01*
X50560952Y-25352857D01*
X50513333Y-25376666D01*
X50489523Y-25424285D01*
X50489523Y-25686190D01*
X50489523Y-25424285D02*
X50465714Y-25376666D01*
X50418095Y-25352857D01*
X50346666Y-25352857D01*
X50299047Y-25376666D01*
X50275238Y-25424285D01*
X50275238Y-25686190D01*
X50037142Y-25352857D02*
X50037142Y-25852857D01*
X50037142Y-25376666D02*
X49989523Y-25352857D01*
X49894285Y-25352857D01*
X49846666Y-25376666D01*
X49822857Y-25400476D01*
X49799047Y-25448095D01*
X49799047Y-25590952D01*
X49822857Y-25638571D01*
X49846666Y-25662380D01*
X49894285Y-25686190D01*
X49989523Y-25686190D01*
X50037142Y-25662380D01*
X48989523Y-25686190D02*
X48989523Y-25186190D01*
X48989523Y-25662380D02*
X49037142Y-25686190D01*
X49132380Y-25686190D01*
X49180000Y-25662380D01*
X49203809Y-25638571D01*
X49227619Y-25590952D01*
X49227619Y-25448095D01*
X49203809Y-25400476D01*
X49180000Y-25376666D01*
X49132380Y-25352857D01*
X49037142Y-25352857D01*
X48989523Y-25376666D01*
X48560952Y-25662380D02*
X48608571Y-25686190D01*
X48703809Y-25686190D01*
X48751428Y-25662380D01*
X48775238Y-25614761D01*
X48775238Y-25424285D01*
X48751428Y-25376666D01*
X48703809Y-25352857D01*
X48608571Y-25352857D01*
X48560952Y-25376666D01*
X48537142Y-25424285D01*
X48537142Y-25471904D01*
X48775238Y-25519523D01*
X48346666Y-25662380D02*
X48299047Y-25686190D01*
X48203809Y-25686190D01*
X48156190Y-25662380D01*
X48132380Y-25614761D01*
X48132380Y-25590952D01*
X48156190Y-25543333D01*
X48203809Y-25519523D01*
X48275238Y-25519523D01*
X48322857Y-25495714D01*
X48346666Y-25448095D01*
X48346666Y-25424285D01*
X48322857Y-25376666D01*
X48275238Y-25352857D01*
X48203809Y-25352857D01*
X48156190Y-25376666D01*
X47918095Y-25686190D02*
X47918095Y-25352857D01*
X47918095Y-25186190D02*
X47941904Y-25210000D01*
X47918095Y-25233809D01*
X47894285Y-25210000D01*
X47918095Y-25186190D01*
X47918095Y-25233809D01*
X47465714Y-25352857D02*
X47465714Y-25757619D01*
X47489523Y-25805238D01*
X47513333Y-25829047D01*
X47560952Y-25852857D01*
X47632380Y-25852857D01*
X47680000Y-25829047D01*
X47465714Y-25662380D02*
X47513333Y-25686190D01*
X47608571Y-25686190D01*
X47656190Y-25662380D01*
X47680000Y-25638571D01*
X47703809Y-25590952D01*
X47703809Y-25448095D01*
X47680000Y-25400476D01*
X47656190Y-25376666D01*
X47608571Y-25352857D01*
X47513333Y-25352857D01*
X47465714Y-25376666D01*
X47227619Y-25352857D02*
X47227619Y-25686190D01*
X47227619Y-25400476D02*
X47203809Y-25376666D01*
X47156190Y-25352857D01*
X47084761Y-25352857D01*
X47037142Y-25376666D01*
X47013333Y-25424285D01*
X47013333Y-25686190D01*
X50822857Y-26202857D02*
X50703809Y-26536190D01*
X50584761Y-26202857D02*
X50703809Y-26536190D01*
X50751428Y-26655238D01*
X50775238Y-26679047D01*
X50822857Y-26702857D01*
X50203809Y-26512380D02*
X50251428Y-26536190D01*
X50346666Y-26536190D01*
X50394285Y-26512380D01*
X50418095Y-26464761D01*
X50418095Y-26274285D01*
X50394285Y-26226666D01*
X50346666Y-26202857D01*
X50251428Y-26202857D01*
X50203809Y-26226666D01*
X50180000Y-26274285D01*
X50180000Y-26321904D01*
X50418095Y-26369523D01*
X49894285Y-26536190D02*
X49941904Y-26512380D01*
X49965714Y-26488571D01*
X49989523Y-26440952D01*
X49989523Y-26298095D01*
X49965714Y-26250476D01*
X49941904Y-26226666D01*
X49894285Y-26202857D01*
X49822857Y-26202857D01*
X49775238Y-26226666D01*
X49751428Y-26250476D01*
X49727619Y-26298095D01*
X49727619Y-26440952D01*
X49751428Y-26488571D01*
X49775238Y-26512380D01*
X49822857Y-26536190D01*
X49894285Y-26536190D01*
X49441904Y-26536190D02*
X49489523Y-26512380D01*
X49513333Y-26464761D01*
X49513333Y-26036190D01*
X49037142Y-26536190D02*
X49037142Y-26274285D01*
X49060952Y-26226666D01*
X49108571Y-26202857D01*
X49203809Y-26202857D01*
X49251428Y-26226666D01*
X49037142Y-26512380D02*
X49084761Y-26536190D01*
X49203809Y-26536190D01*
X49251428Y-26512380D01*
X49275238Y-26464761D01*
X49275238Y-26417142D01*
X49251428Y-26369523D01*
X49203809Y-26345714D01*
X49084761Y-26345714D01*
X49037142Y-26321904D01*
X48799047Y-26536190D02*
X48799047Y-26036190D01*
X48799047Y-26226666D02*
X48751428Y-26202857D01*
X48656190Y-26202857D01*
X48608571Y-26226666D01*
X48584761Y-26250476D01*
X48560952Y-26298095D01*
X48560952Y-26440952D01*
X48584761Y-26488571D01*
X48608571Y-26512380D01*
X48656190Y-26536190D01*
X48751428Y-26536190D01*
X48799047Y-26512380D01*
X50918095Y-27100476D02*
X50965714Y-27076666D01*
X50989523Y-27052857D01*
X51013333Y-27005238D01*
X51013333Y-26981428D01*
X50989523Y-26933809D01*
X50965714Y-26910000D01*
X50918095Y-26886190D01*
X50822857Y-26886190D01*
X50775238Y-26910000D01*
X50751428Y-26933809D01*
X50727619Y-26981428D01*
X50727619Y-27005238D01*
X50751428Y-27052857D01*
X50775238Y-27076666D01*
X50822857Y-27100476D01*
X50918095Y-27100476D01*
X50965714Y-27124285D01*
X50989523Y-27148095D01*
X51013333Y-27195714D01*
X51013333Y-27290952D01*
X50989523Y-27338571D01*
X50965714Y-27362380D01*
X50918095Y-27386190D01*
X50822857Y-27386190D01*
X50775238Y-27362380D01*
X50751428Y-27338571D01*
X50727619Y-27290952D01*
X50727619Y-27195714D01*
X50751428Y-27148095D01*
X50775238Y-27124285D01*
X50822857Y-27100476D01*
X50513333Y-27338571D02*
X50489523Y-27362380D01*
X50513333Y-27386190D01*
X50537142Y-27362380D01*
X50513333Y-27338571D01*
X50513333Y-27386190D01*
X50013333Y-27386190D02*
X50299047Y-27386190D01*
X50156190Y-27386190D02*
X50156190Y-26886190D01*
X50203809Y-26957619D01*
X50251428Y-27005238D01*
X50299047Y-27029047D01*
X49775238Y-27386190D02*
X49680000Y-27386190D01*
X49632380Y-27362380D01*
X49608571Y-27338571D01*
X49560952Y-27267142D01*
X49537142Y-27171904D01*
X49537142Y-26981428D01*
X49560952Y-26933809D01*
X49584761Y-26910000D01*
X49632380Y-26886190D01*
X49727619Y-26886190D01*
X49775238Y-26910000D01*
X49799047Y-26933809D01*
X49822857Y-26981428D01*
X49822857Y-27100476D01*
X49799047Y-27148095D01*
X49775238Y-27171904D01*
X49727619Y-27195714D01*
X49632380Y-27195714D01*
X49584761Y-27171904D01*
X49560952Y-27148095D01*
X49537142Y-27100476D01*
X49322857Y-27338571D02*
X49299047Y-27362380D01*
X49322857Y-27386190D01*
X49346666Y-27362380D01*
X49322857Y-27338571D01*
X49322857Y-27386190D01*
X48822857Y-27386190D02*
X49108571Y-27386190D01*
X48965714Y-27386190D02*
X48965714Y-26886190D01*
X49013333Y-26957619D01*
X49060952Y-27005238D01*
X49108571Y-27029047D01*
X48584761Y-27386190D02*
X48489523Y-27386190D01*
X48441904Y-27362380D01*
X48418095Y-27338571D01*
X48370476Y-27267142D01*
X48346666Y-27171904D01*
X48346666Y-26981428D01*
X48370476Y-26933809D01*
X48394285Y-26910000D01*
X48441904Y-26886190D01*
X48537142Y-26886190D01*
X48584761Y-26910000D01*
X48608571Y-26933809D01*
X48632380Y-26981428D01*
X48632380Y-27100476D01*
X48608571Y-27148095D01*
X48584761Y-27171904D01*
X48537142Y-27195714D01*
X48441904Y-27195714D01*
X48394285Y-27171904D01*
X48370476Y-27148095D01*
X48346666Y-27100476D01*
X49169047Y-30976190D02*
X49002380Y-31476190D01*
X48835714Y-30976190D01*
X48454761Y-31476190D02*
X48454761Y-30976190D01*
X48454761Y-31452380D02*
X48502380Y-31476190D01*
X48597619Y-31476190D01*
X48645238Y-31452380D01*
X48669047Y-31428571D01*
X48692857Y-31380952D01*
X48692857Y-31238095D01*
X48669047Y-31190476D01*
X48645238Y-31166666D01*
X48597619Y-31142857D01*
X48502380Y-31142857D01*
X48454761Y-31166666D01*
X48002380Y-31476190D02*
X48002380Y-30976190D01*
X48002380Y-31452380D02*
X48050000Y-31476190D01*
X48145238Y-31476190D01*
X48192857Y-31452380D01*
X48216666Y-31428571D01*
X48240476Y-31380952D01*
X48240476Y-31238095D01*
X48216666Y-31190476D01*
X48192857Y-31166666D01*
X48145238Y-31142857D01*
X48050000Y-31142857D01*
X48002380Y-31166666D01*
X49201428Y-28396190D02*
X49034761Y-28896190D01*
X48868095Y-28396190D01*
X48725238Y-28872380D02*
X48677619Y-28896190D01*
X48582380Y-28896190D01*
X48534761Y-28872380D01*
X48510952Y-28824761D01*
X48510952Y-28800952D01*
X48534761Y-28753333D01*
X48582380Y-28729523D01*
X48653809Y-28729523D01*
X48701428Y-28705714D01*
X48725238Y-28658095D01*
X48725238Y-28634285D01*
X48701428Y-28586666D01*
X48653809Y-28562857D01*
X48582380Y-28562857D01*
X48534761Y-28586666D01*
X48320476Y-28872380D02*
X48272857Y-28896190D01*
X48177619Y-28896190D01*
X48130000Y-28872380D01*
X48106190Y-28824761D01*
X48106190Y-28800952D01*
X48130000Y-28753333D01*
X48177619Y-28729523D01*
X48249047Y-28729523D01*
X48296666Y-28705714D01*
X48320476Y-28658095D01*
X48320476Y-28634285D01*
X48296666Y-28586666D01*
X48249047Y-28562857D01*
X48177619Y-28562857D01*
X48130000Y-28586666D01*
X47906666Y-27894285D02*
X47906666Y-27656190D01*
X47763809Y-27941904D02*
X48263809Y-27775238D01*
X47763809Y-27608571D01*
X47763809Y-27370476D02*
X47787619Y-27418095D01*
X47811428Y-27441904D01*
X47859047Y-27465714D01*
X48001904Y-27465714D01*
X48049523Y-27441904D01*
X48073333Y-27418095D01*
X48097142Y-27370476D01*
X48097142Y-27299047D01*
X48073333Y-27251428D01*
X48049523Y-27227619D01*
X48001904Y-27203809D01*
X47859047Y-27203809D01*
X47811428Y-27227619D01*
X47787619Y-27251428D01*
X47763809Y-27299047D01*
X47763809Y-27370476D01*
X48097142Y-26775238D02*
X47763809Y-26775238D01*
X48097142Y-26989523D02*
X47835238Y-26989523D01*
X47787619Y-26965714D01*
X47763809Y-26918095D01*
X47763809Y-26846666D01*
X47787619Y-26799047D01*
X47811428Y-26775238D01*
X48097142Y-26608571D02*
X48097142Y-26418095D01*
X48263809Y-26537142D02*
X47835238Y-26537142D01*
X47787619Y-26513333D01*
X47763809Y-26465714D01*
X47763809Y-26418095D01*
D11*
X45500000Y-26615000D02*
X46302470Y-26615000D01*
X46917530Y-26615000D02*
X47720000Y-26615000D01*
X45500000Y-30360000D02*
X45500000Y-26615000D01*
X47720000Y-30360000D02*
X47720000Y-26615000D01*
X45500000Y-30360000D02*
X46046529Y-30360000D01*
X47173471Y-30360000D02*
X47720000Y-30360000D01*
X45500000Y-31120000D02*
X45500000Y-31880000D01*
X45500000Y-31880000D02*
X46610000Y-31880000D01*
D12*
X45406666Y-25156190D02*
X45406666Y-25513333D01*
X45430476Y-25584761D01*
X45478095Y-25632380D01*
X45549523Y-25656190D01*
X45597142Y-25656190D01*
X44906666Y-25656190D02*
X45192380Y-25656190D01*
X45049523Y-25656190D02*
X45049523Y-25156190D01*
X45097142Y-25227619D01*
X45144761Y-25275238D01*
X45192380Y-25299047D01*
M02*
